<svg width="800" height="800" viewBox="0 0 800 800" fill="none" xmlns="http://www.w3.org/2000/svg">
    <g clip-path="url(#clip0_306_2)">
        <path
            d="M400 800C620.914 800 800 620.914 800 400C800 179.086 620.914 0 400 0C179.086 0 0 179.086 0 400C0 620.914 179.086 800 400 800Z"
            fill="#45B39C" />
        <path opacity="0.1"
            d="M790.023 488.889L479.818 178.685C477.097 175.964 471.655 173.243 465.306 172.336L342.857 457.143L312.018 468.027L212.245 504.308C195.918 509.751 185.034 524.263 181.406 540.59L171.428 603.175C170.521 609.524 172.335 614.966 175.964 619.501C176.871 620.408 177.778 621.315 178.685 622.222L352.834 796.372C368.254 798.186 384.58 799.093 400 799.093C590.476 800 749.206 666.667 790.023 488.889Z"
            fill="black" />
        <path
            d="M401.68 486.11L478.063 435.188V372.142C472.001 375.779 467.151 380.629 461.089 385.478C427.141 415.789 394.406 410.939 394.406 410.939C375.007 410.939 345.909 391.54 333.784 381.841C330.147 379.416 327.722 376.991 324.085 374.566V435.188L401.68 486.11Z"
            fill="#F0BA7D" />
        <path d="M401.68 473.985L377.432 507.933L401.68 473.985Z" fill="#F6C358" />
        <path
            d="M320.447 142.993H367.732C372.582 142.993 376.219 141.78 379.856 140.568C388.343 138.143 401.68 133.293 412.592 128.444C422.291 124.806 431.991 124.806 441.69 128.444L491.4 145.418C525.348 157.542 527.772 189.065 527.772 189.065V277.572C527.772 277.572 532.622 247.262 547.171 223.013C550.809 216.951 553.233 209.676 553.233 203.614V128.444C553.233 128.444 548.384 90.8584 512.011 82.3715C512.011 82.3715 526.56 50.8483 487.762 42.3613H344.696C292.561 42.3613 248.914 84.7963 248.914 138.143V195.127C248.914 207.252 252.551 219.376 261.038 229.075C267.1 236.35 273.163 248.474 274.375 265.448V189.065C284.074 146.63 320.447 142.993 320.447 142.993Z"
            fill="#64798A" />
        <path
            d="M395.618 423.063C395.618 423.063 428.353 427.913 462.301 397.602C467.151 392.753 473.213 389.115 479.275 384.266L480.488 383.053C495.037 373.354 524.135 345.468 530.197 278.785V190.277C530.197 190.277 526.56 158.754 493.824 146.63L441.69 128.444C431.991 124.806 422.291 124.806 412.592 128.444C401.68 132.081 388.343 136.931 379.856 140.568C376.219 141.78 371.369 142.993 367.732 142.993H320.447C320.447 142.993 284.074 147.842 274.375 189.065V264.235V281.209C274.375 281.209 275.587 353.955 324.085 385.478C324.085 385.478 325.297 385.478 325.297 386.691C328.934 389.115 331.359 391.54 334.996 393.965C347.121 402.452 375.006 423.063 395.618 423.063Z"
            fill="#FED298" />
        <path d="M427.142 503.084L411.381 524.908L425.93 612.203L459.878 549.156L427.142 503.084Z" fill="#D5D6DB" />
        <path d="M378.645 612.203L391.981 524.908L376.22 503.084L343.484 549.156L378.645 612.203Z" fill="#D5D6DB" />
        <path d="M377.433 507.934L376.221 509.146L401.682 473.986L377.433 507.934Z" fill="#D5D6DB" />
        <path
            d="M427.142 604.928L415.017 528.545L428.354 509.146L401.681 473.985L376.22 509.146L389.556 528.545L376.22 606.14L401.681 651L427.142 606.14V604.928Z"
            fill="#E56353" />
        <path d="M401.68 473.985L428.353 509.146L457.451 550.368L519.285 437.613L478.063 423.063L401.68 473.985Z"
            fill="#E1E6E9" />
        <path
            d="M376.22 509.146L377.432 507.933L401.681 473.985L325.298 423.063L284.075 437.613L345.909 550.368L376.22 509.146Z"
            fill="#E1E6E9" />
        <path
            d="M401.681 651H434.416H679.327C696.301 651 710.85 635.239 707.212 618.265L693.876 534.607C690.238 511.571 674.477 493.384 652.653 486.11L519.286 437.613"
            fill="#3A556A" />
        <path
            d="M427.142 606.14L401.681 651L404.105 648.575L525.348 538.244L510.799 509.146H554.447L519.286 437.613L457.452 550.369L427.142 606.14Z"
            fill="#2F4859" />
        <path
            d="M401.681 651L284.075 437.613L150.708 486.11C128.884 493.384 113.123 512.783 109.486 534.607L96.1489 618.265C93.724 635.239 107.061 651 124.035 651H370.158H389.556H401.681Z"
            fill="#3A556A" />
        <path
            d="M401.68 651L376.219 606.14L345.908 550.369L284.074 437.613L248.914 509.146H292.561L278.012 538.244L399.255 648.575L401.68 651Z"
            fill="#2F4859" />
    </g>
    <defs>
        <clipPath id="clip0_306_2">
            <rect width="800" height="800" fill="white" />
        </clipPath>
    </defs>
</svg>