<?xml version="1.0" encoding="utf-8"?>
<!-- Generator: Adobe Illustrator 27.5.0, SVG Export Plug-In . SVG Version: 6.00 Build 0)  -->
<svg version="1.1" id="Layer_1" xmlns="http://www.w3.org/2000/svg" xmlns:xlink="http://www.w3.org/1999/xlink" x="0px" y="0px"
	 viewBox="0 0 5000 5000" style="enable-background:new 0 0 5000 5000;" xml:space="preserve">
<g>
	<g>
		<g>
			<g style="enable-background:new    ;">
				<g>
					<path style="fill:#B3D5E0;" d="M1558.109,240.838l-4.916,2.753c-0.196,0.197-0.393,0.295-0.59,0.394
						c-0.688,0.393-1.376,0.786-2.064,0.983c-0.688,0.393-1.475,0.59-2.163,0.787c-0.786,0.196-1.573,0.393-2.359,0.393
						c-0.787,0.197-1.573,0.197-2.458,0.197c-2.556,0-5.309-0.492-8.258-1.475c-0.098-0.098-0.098-0.098-0.197-0.098
						c-2.261-0.688-4.621-1.77-6.981-3.146l0.787-0.492h0.098c0,0,0,0,0.098,0l4.522-2.655c8.16,4.72,15.731,5.801,21.629,3.638
						C1556.241,241.82,1557.224,241.329,1558.109,240.838z"/>
				</g>
				<path style="fill:#88A3AA;" d="M1623.881,247.916l-3.834,2.261c-0.295,0.197-0.59,0.295-0.885,0.492
					c-0.098,0.098-0.197,0.098-0.295,0.098c-0.984,0.492-1.966,0.787-2.95,0.983c-1.081,0.295-2.261,0.393-3.441,0.393
					c-2.851,0-5.997-0.688-9.34-2.163c-1.18-0.492-2.359-1.081-3.539-1.77c-1.573-0.885-3.245-1.966-4.817-3.244
					c-11.896-9.045-21.432-25.562-23.301-40.407c-0.295-2.065-0.394-4.031-0.394-5.899c0-1.474,0.098-2.851,0.295-4.129
					c0-0.197,0-0.393,0.098-0.688c0.196-1.278,0.393-2.556,0.786-3.637c0.099-0.492,0.295-0.885,0.492-1.377
					c0.098-0.59,0.393-1.081,0.688-1.671c0.196-0.393,0.393-0.787,0.688-1.18c0-0.295,0.197-0.491,0.394-0.688
					c0.196-0.393,0.393-0.787,0.688-1.081c0.098-0.197,0.196-0.295,0.393-0.491c0.59-0.787,1.278-1.377,1.966-1.966
					c0.098-0.098,0.196-0.197,0.295-0.197c0.492-0.393,0.984-0.787,1.573-1.081l1.081-0.59l4.424-2.655
					c-0.885,0.492-1.77,1.18-2.556,1.966c-1.671,1.573-3.048,3.638-3.933,6.096c-0.786,1.671-1.278,3.539-1.573,5.702v0.098
					c-0.393,3.048-0.393,6.488,0.098,10.323c1.868,14.747,11.404,31.264,23.301,40.407c1.573,1.18,3.245,2.261,4.817,3.245
					c1.18,0.688,2.359,1.278,3.539,1.868c5.113,2.064,9.733,2.556,13.666,1.474C1622.899,248.309,1623.39,248.113,1623.881,247.916z
					"/>
				<g>
					<polygon style="fill:#B3D5E0;" points="1676.381,320.865 1676.283,374.054 1670.777,377.2 1670.876,324.011 					"/>
				</g>
				<g>
					<path style="fill:#B3D5E0;" d="M1676.381,320.865l-5.506,3.146c-18.975-10.913-34.312-37.458-34.213-59.283l5.506-3.146
						C1642.07,283.31,1657.407,309.854,1676.381,320.865z"/>
				</g>
				<g>
					<polygon style="fill:#A3C4CC;" points="1642.267,231.891 1642.168,261.582 1636.663,264.728 1636.76,235.037 					"/>
				</g>
				<g>
					<path style="fill:#A3C4CC;" d="M1642.267,231.891l-5.506,3.146c0-3.834-0.393-7.767-1.277-11.7
						c-2.753-13.764-10.028-27.921-19.663-38.736c-4.719-5.506-10.127-10.126-15.928-13.469c-0.295-0.098-0.491-0.295-0.786-0.393
						c-1.18-0.688-2.359-1.18-3.441-1.77c-4.326-1.966-8.356-2.852-12.092-2.852c-0.885,0-1.77,0.098-2.556,0.197
						c-0.884,0.098-1.671,0.197-2.556,0.492c-0.786,0.197-1.573,0.491-2.359,0.787c-0.196,0.098-0.491,0.197-0.787,0.295l4.13-2.458
						c5.702-3.244,13.174-3.441,21.727,0.394c0.394,0.196,0.688,0.295,1.082,0.491c1.081,0.492,2.163,1.081,3.146,1.671
						c5.112,2.949,9.929,6.882,14.255,11.601c9.733,10.324,17.402,24.284,20.745,37.95
						C1641.578,222.354,1642.267,227.27,1642.267,231.891z"/>
					<path style="fill:#A3C4CC;" d="M1576.101,167.593c-0.688,0.295-1.474,0.688-2.163,1.081c0.491-0.295,0.983-0.59,1.376-0.787
						C1575.609,167.79,1575.904,167.691,1576.101,167.593z"/>
				</g>
				<g>
					<path style="fill:#B3D5E0;" d="M1575.314,167.888c-0.393,0.197-0.885,0.492-1.376,0.787c0.688-0.393,1.474-0.787,2.163-1.081
						C1575.904,167.691,1575.609,167.79,1575.314,167.888z M1580.525,179.883c0.59-0.295,1.18-0.492,1.868-0.688
						c0.787-0.787,1.671-1.475,2.556-1.966L1580.525,179.883z M1599.598,248.211c-1.573-0.885-3.245-1.966-4.817-3.244
						c-11.896-9.045-21.432-25.562-23.301-40.407c-0.295-2.065-0.394-4.031-0.394-5.899c0-1.474,0.098-2.851,0.295-4.129
						c0-0.197,0-0.393,0.098-0.688c0.196-1.278,0.393-2.556,0.786-3.637c0.099-0.492,0.295-0.885,0.492-1.377
						c0.098-0.59,0.393-1.081,0.688-1.671c0.196-0.393,0.393-0.787,0.688-1.18c0-0.295,0.197-0.491,0.394-0.688
						c-3.146-0.295-6.588-1.18-10.323-2.655c-0.197,0.295-0.295,0.688-0.295,0.984v0.098c-0.787,2.949-1.18,6.292-1.18,9.831
						l-0.098,28.511c0,9.143-2.752,16.025-7.374,20.057c-0.688,0.59-1.377,1.081-2.065,1.474c-0.196,0.197-0.393,0.295-0.59,0.394
						c-0.688,0.393-1.376,0.786-2.064,0.983c-0.688,0.393-1.376,0.59-2.163,0.787c-0.786,0.196-1.573,0.295-2.359,0.393
						c-0.787,0.098-1.573,0.197-2.458,0.197c-2.556,0-5.309-0.492-8.258-1.475c5.112,2.949,10.716,5.997,16.713,8.357
						c6.98,2.655,14.649,4.621,23.497,4.424c8.062-0.098,17.402-2.261,27.626-7.668
						C1601.957,249.489,1600.778,248.899,1599.598,248.211z M1622.309,248.407c-0.491,0.492-0.983,0.885-1.475,1.278l3.048-1.77
						C1623.39,248.113,1622.899,248.309,1622.309,248.407z"/>
				</g>
			</g>
		</g>
		<g>
			<g>
				<g style="enable-background:new    ;">
					<g>
						<path style="fill:#B3D5E0;" d="M1387.549,787.968c5.153,26.748,10.827,52.801,19.28,76.828l408.051,237.141
							c-8.511-24.027-14.127-50.08-19.28-76.828c-19.511-110.118-26.285-252.658-15.689-396.472
							c5.674-77.696,16.442-155.74,33-229.21l-408.051-237.142c-16.674,73.991-27.443,152.556-33.116,230.773
							C1361.322,536.295,1368.096,678.255,1387.549,787.968z"/>
					</g>
					<g>
						<path style="fill:#BEE4ED;" d="M1386.106,787.968c5.153,26.748,10.769,52.801,19.28,76.828
							c8.395-33.753,13.836-66.233,18.816-98.828c18.816-132.177,24.78-282.127,13.432-413.261
							c-6.136-70.865-17.311-136.229-34.217-190.42c-16.558,73.47-27.327,151.514-33.001,229.21
							C1359.821,535.31,1366.595,677.85,1386.106,787.968z"/>
					</g>
				</g>
			</g>
			<path style="opacity:0.7;fill:#CEF0F5;" d="M1387.549,787.968c5.153,26.748,10.827,52.801,19.28,76.828l408.051,237.141
				c-8.511-24.027-14.127-50.08-19.28-76.828c-19.511-110.118-26.285-252.658-15.689-396.472L1371.743,393.06
				C1361.322,536.295,1368.096,678.255,1387.549,787.968z"/>
			<g>
				<path style="opacity:0.7;fill:#ABEFF4;" d="M1795.599,1025.11c5.153,26.748,10.769,52.801,19.28,76.828
					c8.395-33.753,13.837-66.233,18.816-98.828c18.816-132.177,24.78-282.127,13.432-413.261l-67.217,38.79
					C1769.314,772.452,1776.088,914.992,1795.599,1025.11z"/>
			</g>
			<polygon style="fill:#90D3D1;" points="1371.743,393.06 1779.27,629.029 1847.12,589.856 1439.593,353.887 			"/>
			<g style="opacity:0.38;">
				<path style="fill:#A1C1C9;" d="M1795.482,1025.11c5.153,26.748,10.769,52.801,19.28,76.828
					c8.395-33.753,13.837-66.233,18.816-98.828c18.816-132.177,24.78-282.127,13.432-413.261
					c-6.137-70.865-17.311-136.229-34.217-190.42c-16.558,73.47-27.327,151.513-33,229.21
					C1769.198,772.452,1775.972,914.992,1795.482,1025.11z"/>
			</g>
		</g>
		<g>
			<g>
				<g style="enable-background:new    ;">
					<g>
						<path style="fill:#B3D5E0;" d="M159.977,1505.366c5.153,26.748,10.826,52.801,19.28,76.828l408.05,237.141
							c-8.511-24.027-14.127-50.08-19.28-76.828c-19.511-110.118-26.285-252.658-15.689-396.472
							c5.674-77.696,16.442-155.74,33-229.21l-408.05-237.142c-16.674,73.991-27.443,152.556-33.116,230.773
							C133.749,1253.693,140.523,1395.654,159.977,1505.366z"/>
					</g>
					<g>
						<path style="fill:#A1C1C9;" d="M568.027,1742.508c5.153,26.748,10.769,52.801,19.28,76.828
							c8.395-33.753,13.836-66.233,18.816-98.828c18.816-132.177,24.78-282.127,13.432-413.261
							c-6.136-70.865-17.311-136.229-34.217-190.42c-16.558,73.47-27.327,151.514-33,229.21
							C541.742,1489.85,548.516,1632.39,568.027,1742.508z"/>
					</g>
					<g>
						<path style="fill:#BEE4ED;" d="M158.534,1505.366c5.153,26.748,10.769,52.801,19.28,76.828
							c8.395-33.753,13.836-66.233,18.816-98.828c18.816-132.177,24.78-282.127,13.432-413.261
							c-6.137-70.865-17.311-136.229-34.217-190.42c-16.558,73.47-27.327,151.514-33,229.21
							C132.249,1252.709,139.023,1395.248,158.534,1505.366z"/>
					</g>
				</g>
			</g>
			<path style="fill:#951E23;" d="M159.977,1505.366c5.153,26.748,10.826,52.801,19.28,76.828l408.05,237.141
				c-8.511-24.027-14.127-50.08-19.28-76.828c-19.511-110.118-26.285-252.658-15.689-396.472l-408.166-235.578
				C133.749,1253.693,140.523,1395.654,159.977,1505.366z"/>
			<g>
				<path style="fill:#681518;" d="M568.027,1742.508c5.153,26.748,10.769,52.801,19.28,76.828
					c8.395-33.753,13.836-66.233,18.816-98.828c18.816-132.177,24.78-282.127,13.432-413.261l-67.217,38.79
					C541.742,1489.85,548.516,1632.39,568.027,1742.508z"/>
			</g>
			<polygon style="fill:#BE2934;" points="144.171,1110.458 551.698,1346.427 619.547,1307.254 212.021,1071.285 			"/>
		</g>
		<g>
			<g style="enable-background:new    ;">
				<g>
					<path style="fill:#6DD6E2;" d="M1142.004,3493.385l-0.105,36.955c-0.073,25.756-17.008,51.47-50.816,71.117
						c-68.038,39.539-178.717,39.576-247.263,0.001c-34.461-19.896-51.673-46.024-51.599-72.111l0.105-36.955
						c-0.074,26.088,17.138,52.215,51.599,72.112c68.545,39.575,179.225,39.538,247.263-0.001
						C1124.996,3544.855,1141.931,3519.141,1142.004,3493.385z"/>
				</g>
				<g>
					
						<ellipse transform="matrix(0.0028 -1 1 0.0028 -2528.4648 4450.1392)" style="fill:#53A6AA;" cx="967.153" cy="3492.891" rx="101.274" ry="174.842"/>
				</g>
			</g>
		</g>
		<g>
			<g style="enable-background:new    ;">
				<g>
					
						<linearGradient id="SVGID_1_" gradientUnits="userSpaceOnUse" x1="1161.9901" y1="1993.4667" x2="1259.7166" y2="1993.4667" gradientTransform="matrix(1 0 0 1 -243.7077 0)">
						<stop  offset="0" style="stop-color:#6DD6E2"/>
						<stop  offset="0.289" style="stop-color:#69D2DF"/>
						<stop  offset="0.5522" style="stop-color:#5FC7D7"/>
						<stop  offset="0.8044" style="stop-color:#4DB5CA"/>
						<stop  offset="1" style="stop-color:#39A1BC"/>
					</linearGradient>
					<path style="fill:url(#SVGID_1_);" d="M1016.009,488.809l-8.459,2983.862c-0.018,6.57-4.33,13.124-12.934,18.125
						c-17.399,10.111-45.679,10.111-63.193,0c-8.773-5.065-13.159-11.724-13.14-18.379l8.459-2983.862
						c-0.019,6.655,4.367,13.314,13.14,18.379c17.513,10.111,45.793,10.111,63.193,0
						C1011.679,501.933,1015.99,495.379,1016.009,488.809z"/>
				</g>
				<g>
					<path style="fill:#3FA9F5;" d="M1002.805,470.366c17.513,10.111,17.605,26.492,0.269,36.567
						c-17.399,10.111-45.679,10.111-63.193,0c-17.45-10.075-17.542-26.455-0.143-36.567
						C957.076,460.292,985.355,460.292,1002.805,470.366z"/>
				</g>
			</g>
		</g>
		<g>
			<g style="enable-background:new    ;">
				<path style="fill:#53A6AA;" d="M1604.71,185.683c1.868,1.475,3.638,3.048,5.407,4.818c-1.573,1.474-2.949,2.359-4.326,3.145
					c-2.163,1.278-4.227,2.065-6.98,2.556c-4.719,0.688-10.913-0.393-17.598-3.244c-1.278-0.492-2.556-1.082-3.834-1.672
					c-0.098-0.098-0.295-0.196-0.491-0.295c-1.377-0.688-2.753-1.377-4.129-2.163c-0.197-0.098-0.394-0.196-0.59-0.295
					c-0.984-0.59-1.868-1.081-2.852-1.672c-1.77-0.983-3.539-2.064-5.407-3.145l-10.52-6.095c0.984,0.491,2.065,1.081,3.048,1.573
					c0.197,0.098,0.491,0.295,0.787,0.393c1.671,0.885,3.342,1.672,5.014,2.359c0.688,0.295,1.376,0.59,1.966,0.688
					c3.735,1.475,7.177,2.36,10.323,2.655c1.376,0.098,2.654,0.098,3.932,0c0.492,0,0.984-0.098,1.376-0.098
					c2.753-0.492,4.916-1.278,6.981-2.556c1.474-0.884,3.048-1.868,4.817-3.539c2.556,0.59,5.407,1.671,8.258,3.343
					C1601.466,183.323,1603.039,184.405,1604.71,185.683z"/>
				<path style="fill:#53A6AA;" d="M1702.238,56.989c-1.573-0.885-3.441-1.377-5.407-1.475c-3.637-0.196-7.57,1.081-11.405,3.244
					c-8.455,4.916-16.615,14.846-20.941,26.447c-14.845,40.407-28.019,67.935-38.146,84.452c-2.458,3.933-4.62,7.177-6.685,9.93
					c-4.326-4.719-9.143-8.652-14.255-11.601c-0.983-0.59-2.065-1.18-3.146-1.671c1.671-2.261,3.342-4.817,5.112-7.669
					c10.225-16.517,23.399-44.045,38.245-84.452c4.227-11.601,12.388-21.531,20.941-26.447c3.834-2.261,7.669-3.441,11.307-3.245
					c2.163,0.098,4.031,0.688,5.603,1.573L1702.238,56.989z"/>
				<g>
					<path style="fill:#3FA9F5;" d="M1533.039,243.492l-4.129-2.359l-12.585-7.275c-0.59-0.295-1.081-0.688-1.671-1.081
						c-0.196-0.098-0.393-0.197-0.59-0.295c-4.326-2.556-8.455-5.112-12.191-7.374l18.876,11.011
						c2.655,1.573,5.407,3.244,8.259,5.014c0,0,0,0,0.098,0C1530.385,241.919,1531.663,242.706,1533.039,243.492z"/>
				</g>
				<g>
					<path style="fill:#53A6AA;" d="M1535.315,166.853l18.956,11.016c-1.886-1.096-3.797-2.173-5.736-3.206
						c-5.982-3.121-12.277-5.844-19.699-6.977c-3.711-0.531-7.735-0.736-12.198-0.11c-4.463,0.626-9.426,2.046-14.762,4.694
						c-20.656,10.192-51.292,26.579-89.146,47.35c-113.309,62.313-290.638,163.971-441.476,251.057
						c-100.683,58.129-189.53,109.772-239.31,138.584c-60.473,34.817-128.273,73.624-182.006,104.374
						c-28.435,16.201-52.916,30.19-70.241,40.048c-17.388,9.894-27.62,15.729-27.682,15.766l-18.956-11.016
						c0.063-0.036,10.295-5.871,27.682-15.766c17.325-9.858,41.806-23.848,70.241-40.048
						c53.733-30.75,121.534-69.557,182.006-104.374c49.78-28.812,138.627-80.455,239.31-138.584
						c150.838-87.086,328.166-188.744,441.475-251.057c37.854-20.771,68.489-37.158,89.146-47.35
						c5.337-2.648,10.3-4.068,14.762-4.694c4.462-0.626,8.486-0.421,12.198,0.11c7.422,1.133,13.717,3.857,19.699,6.977
						C1531.517,164.68,1533.429,165.757,1535.315,166.853z"/>
				</g>
				<g>
					<polygon style="fill:#53A6AA;" points="429.967,798.795 411.011,787.779 417.24,767.421 436.196,778.437 					"/>
				</g>
				<g>
					<polygon style="fill:#53A6AA;" points="436.196,778.437 417.24,767.421 433.059,758.432 452.015,769.448 					"/>
				</g>
				<g>
					<path style="fill:#53A6AA;" d="M385.315,885.289c-0.59,0.688-1.278,1.376-1.868,1.966c-5.604,5.8-11.208,10.323-17.107,13.665
						c-1.868,1.082-3.736,2.065-5.702,2.95h-0.098c-3.441,1.474-7.177,2.654-11.109,3.342c-0.394,0.098-0.885,0.197-1.278,0.295
						c-4.13,0.59-8.456,0.688-12.978,0.098c-1.278-0.098-2.655-0.295-4.031-0.591c-1.77-0.393-3.638-0.884-5.506-1.376
						c-1.573-0.59-3.146-1.082-4.719-1.77c-0.197-0.098-0.393-0.197-0.688-0.295c-0.295-0.098-0.491-0.197-0.787-0.393
						c-1.081-0.394-2.064-0.885-3.146-1.475c-0.688-0.295-1.278-0.59-1.868-0.983c-3.638-1.966-7.374-4.424-11.109-7.275
						c3.048,1.081,5.997,1.966,8.946,2.556c8.75,1.77,16.812,1.082,24.087-1.278c3.342-0.983,6.587-2.359,9.635-4.031
						c0.393-0.197,0.885-0.393,1.278-0.688c0.099,0,0.099-0.098,0.197-0.098c3.539-1.966,6.882-4.424,10.225-7.275
						c2.261-1.868,4.523-4.031,6.784-6.39c0.787-0.787,1.573-1.672,2.261-2.556c2.655,0.59,5.408,1.671,8.259,3.342
						C378.63,879.095,382.169,881.946,385.315,885.289z"/>
					<path style="fill:#3083B7;" d="M303.321,893.449c3.735,2.851,7.471,5.309,11.109,7.275c-0.59-0.295-1.278-0.59-1.867-0.984
						l-18.975-11.011c3.244,1.868,6.391,3.343,9.537,4.621C303.223,893.351,303.223,893.351,303.321,893.449z"/>
					<path style="fill:#53A6AA;" d="M429.95,798.773c-6.98,23.104-15.927,43.553-25.365,59.775
						c-1.475,2.458-2.852,4.818-4.326,7.079c-0.295,0.491-0.688,1.081-1.081,1.573c-4.621,6.981-9.242,13.076-13.863,18.09
						c-3.146-3.343-6.685-6.194-10.323-8.259c-2.851-1.671-5.604-2.753-8.259-3.342c5.014-5.309,9.734-11.7,14.551-19.073
						c0.786-1.278,1.573-2.556,2.359-3.834c1.573-2.458,3.048-4.916,4.424-7.57c8.553-15.435,16.517-34.312,22.907-55.449
						L429.95,798.773z"/>
				</g>
				<g>
					<path style="fill:#53A6AA;" d="M278.714,957.795l-18.956-11.016c-10.655-6.192-20.99-14.891-31.017-26.169
						c-7.38-8.31-4.541-26.999,6.358-41.744c4.099-5.528,8.736-9.719,13.324-12.367c6.251-3.609,12.409-4.351,16.975-1.698
						l18.956,11.016c-4.566-2.654-10.724-1.911-16.975,1.698c-4.588,2.648-9.225,6.84-13.324,12.367
						c-10.898,14.745-13.738,33.434-6.358,41.744C257.724,942.903,268.06,951.603,278.714,957.795z"/>
				</g>
				<g>
					<path style="fill:#B3D5E0;" d="M1670.876,324.011l-0.098,53.189l-142.753-82.388l0.098-53.188
						c2.359,1.377,4.72,2.458,6.981,3.146c0.099,0,0.099,0,0.197,0.098c5.112,2.949,10.716,5.997,16.713,8.357
						c6.98,2.655,14.649,4.621,23.497,4.424c8.062-0.098,17.402-2.261,27.626-7.668c3.343,1.474,6.489,2.163,9.34,2.163
						c1.18,0,2.359-0.098,3.441-0.393c0.984-0.197,1.966-0.491,2.95-0.983c0.098,0,0.196,0,0.295-0.098
						c0.295-0.197,0.59-0.295,0.885-0.492l0.786-0.492l3.048-1.77c-0.491,0.197-0.983,0.393-1.573,0.491
						c3.933-3.342,6.194-9.438,6.095-17.5c0-1.475-0.099-3.146-0.393-4.817c-1.672-12.388-8.652-26.152-17.893-35.59
						c-1.77-1.77-3.539-3.343-5.407-4.818c-1.672-1.278-3.245-2.359-4.818-3.244c-2.851-1.672-5.702-2.753-8.258-3.343
						c-3.441-0.787-6.587-0.787-9.242,0.098c0.787-0.787,1.671-1.475,2.556-1.966l-4.424,2.655l-1.081,0.59
						c-0.59,0.295-1.081,0.688-1.573,1.081c-0.098,0-0.196,0.098-0.295,0.197c-0.688,0.59-1.377,1.18-1.966,1.966
						c-0.197,0.196-0.295,0.295-0.393,0.491c-0.295,0.295-0.492,0.688-0.688,1.081c-3.146-0.295-6.588-1.18-10.323-2.655
						c1.671-6.488,5.112-11.306,9.733-13.96c0.688-0.393,1.474-0.787,2.163-1.081c0.787-0.295,1.573-0.59,2.359-0.787
						c0.885-0.295,1.672-0.393,2.556-0.492c0.787-0.098,1.671-0.197,2.556-0.197c3.736,0,7.767,0.885,12.092,2.852
						c1.082,0.59,2.262,1.081,3.441,1.77c0.295,0.098,0.491,0.295,0.786,0.393c5.801,3.343,11.208,7.964,15.928,13.469
						c9.635,10.815,16.91,24.972,19.663,38.736c0.885,3.933,1.277,7.865,1.277,11.7l-0.098,29.691
						C1636.564,286.553,1651.901,313.099,1670.876,324.011z"/>
					<path style="fill:#3FA9F5;" d="M314.43,900.725c-0.59-0.295-1.278-0.59-1.867-0.984l-18.975-11.011
						c3.244,1.868,6.391,3.343,9.537,4.621c0.099,0,0.099,0,0.197,0.098C307.057,896.3,310.793,898.758,314.43,900.725z"/>
					<path style="fill:#6DD6E2;" d="M1628.404,230.908c-6.489,6.489-13.174,11.896-19.761,16.025
						c-0.885,0.59-1.77,1.081-2.654,1.573c-0.984,0.59-1.868,1.081-2.852,1.475c-10.224,5.407-19.564,7.57-27.626,7.668
						c-8.848,0.197-16.517-1.77-23.497-4.424c-5.997-2.359-11.601-5.407-16.713-8.357c-0.098-0.098-0.098-0.098-0.197-0.098
						c-0.688-0.393-1.377-0.885-2.065-1.278c-1.376-0.786-2.654-1.573-3.932-2.359c-0.098,0-0.098,0-0.098,0
						c-2.851-1.77-5.604-3.441-8.259-5.014c-1.278-0.688-2.458-1.376-3.736-2.064c-0.786-0.492-1.573-0.885-2.359-1.278
						c-0.196-0.098-0.393-0.197-0.59-0.295c-5.309-2.654-9.831-4.031-12.682-3.932c-21.925,9.831-52.205,25.955-89.663,46.503
						c-37.359,20.646-82.093,45.618-130.562,73.048c-97.036,54.86-209.311,119.452-309.789,177.359
						c-93.89,54.27-177.458,102.837-228.778,132.528l-25.955,15.042c-98.02,56.335-209.705,120.042-249.621,142.753
						c-6.587,18.188-14.256,35.688-23.005,52.107c-6.292,11.798-13.273,23.006-20.843,33.526c-2.556,3.638-5.113,7.078-7.866,10.519
						c-4.129,5.112-8.357,10.028-12.682,14.649c0.098-0.492,0.098-1.082,0.098-1.573c0-13.371-7.177-29.101-17.402-39.719
						c4.621-5.014,9.242-11.11,13.863-18.09c0.393-0.491,0.786-1.081,1.081-1.573c1.474-2.261,2.851-4.621,4.326-7.079
						c9.438-16.222,18.385-36.671,25.365-59.775l6.292-20.351l15.731-8.947c0.098-0.098,10.323-5.899,27.725-15.828
						c17.303-9.831,41.784-23.792,70.196-40.014c53.778-30.772,121.615-69.508,182.079-104.41
						c49.747-28.806,138.623-80.421,239.298-138.525c150.814-87.107,328.173-188.764,441.432-251.096
						c37.851-20.744,68.526-37.163,89.171-47.289c5.309-2.655,10.323-4.129,14.747-4.719c4.523-0.688,8.553-0.394,12.191,0.098
						c7.472,1.081,13.764,3.834,19.761,6.98c1.475,0.787,2.949,1.573,4.326,2.458c1.18,0.688,2.359,1.278,3.539,2.065
						c0.197,0.098,0.491,0.295,0.787,0.393c2.261,1.377,4.523,2.753,6.685,4.031v0.098c1.868,1.081,3.638,2.163,5.407,3.145
						c0.984,0.59,1.966,1.18,2.852,1.672c0.196,0.098,0.393,0.196,0.59,0.295c1.376,0.787,2.752,1.475,4.129,2.163v0.098
						c0.197,0,0.295,0.098,0.491,0.196c1.278,0.59,2.556,1.18,3.834,1.672c6.685,2.851,12.879,3.932,17.598,3.244
						c2.753-0.491,4.817-1.278,6.98-2.556c1.377-0.786,2.753-1.671,4.326-3.145c9.242,9.438,16.222,23.202,17.893,35.59
						C1628.306,227.762,1628.404,229.433,1628.404,230.908z"/>
					<path style="fill:#6DD6E2;" d="M1706.564,87.172c-12.289,33.328-24.087,60.562-35.984,83.174
						c-9.733,18.483-19.663,34.116-30.182,47.191c-3.343-13.666-11.012-27.626-20.745-37.95c2.065-2.753,4.227-5.997,6.685-9.93
						c10.127-16.517,23.301-44.045,38.146-84.452c4.326-11.601,12.486-21.531,20.941-26.447c3.834-2.163,7.767-3.441,11.405-3.244
						c1.967,0.098,3.834,0.59,5.407,1.475C1709.612,61.02,1711.677,73.113,1706.564,87.172z"/>
				</g>
			</g>
		</g>
		<g>
			<path style="fill:#3083B7;" d="M365.652,868.674c-1.966,1.081-3.539,2.655-4.817,4.719c-1.671,2.458-2.753,5.506-3.146,9.242
				c-3.342,2.852-6.685,5.309-10.225,7.275c-0.098,0-0.098,0.098-0.197,0.098c-0.393,0.295-0.885,0.492-1.278,0.688
				c0.59-7.472,3.638-12.781,8.16-15.435L365.652,868.674z"/>
			<path style="fill:#3083B7;" d="M405.765,937.789l-11.405,6.686c-3.539,1.966-7.865,2.458-12.781,1.18
				c0.59-0.492,1.18-0.885,1.77-1.377c2.458-1.966,4.916-3.933,7.275-6.095c2.655,1.081,5.211,1.573,7.57,1.573
				C401.046,939.755,403.602,939.067,405.765,937.789z"/>
			<polygon style="fill:#BDCEEC;" points="422.106,1021.982 437.639,1030.991 423.582,907.509 415.284,912.332 			"/>
			<path style="fill:#BDCEEC;" d="M358.279,838.85l-8.299,4.823c6.952-4.04,16.578-3.472,27.199,2.66l8.299-4.823
				C374.857,835.378,365.231,834.81,358.279,838.85z"/>
			<path style="fill:#BDCEEC;" d="M415.284,912.332l8.299-4.823c0.069-24.254-16.997-53.813-38.104-65.999l-8.299,4.823
				C398.286,858.519,415.353,888.078,415.284,912.332z"/>
			<path style="fill:#DDE6F5;" d="M414.711,904.657c-0.098-1.18-0.295-2.458-0.491-3.637c-0.098-0.196-0.098-0.491-0.197-0.688
				c-0.295-1.474-0.59-2.949-0.983-4.424c-0.688-2.458-1.475-4.916-2.359-7.374c-1.377-3.638-3.048-7.276-4.916-10.717
				c-1.966-3.736-4.129-7.275-6.587-10.618c-2.262-3.244-4.72-6.194-7.374-8.946c-1.573-1.77-3.343-3.441-5.112-4.916
				c-0.984-0.885-2.065-1.77-3.048-2.556c-2.065-1.671-4.227-3.146-6.489-4.424c-6.194-3.539-11.994-5.21-17.107-5.21
				c-0.885,0-1.868,0.098-2.753,0.196c-0.885,0.098-1.672,0.197-2.556,0.492c-0.885,0.196-1.671,0.491-2.458,0.786
				c-0.295,0.098-0.59,0.197-0.787,0.295c-0.197,0.196-0.393,0.196-0.59,0.393c-0.098,0-0.197,0-0.197,0.098
				c-0.295,0.098-0.491,0.197-0.688,0.295c-6.882,4.031-11.11,12.387-11.208,24.48l-2.458,26.544
				c3.342-0.983,6.587-2.359,9.635-4.031c0.393-0.197,0.885-0.393,1.278-0.688c0.885-9.93,6.096-15.927,13.568-16.615
				c1.77-0.295,3.834-0.098,5.899,0.295c2.655,0.59,5.408,1.671,8.259,3.342c3.638,2.065,7.177,4.916,10.323,8.259
				c10.225,10.618,17.402,26.348,17.402,39.719c0,0.491,0,1.081-0.098,1.573c-0.197,5.604-1.868,10.126-4.424,13.174
				c-3.441,4.227-8.75,5.899-14.846,4.523c-0.59,0.492-1.18,0.885-1.77,1.377c-4.916,3.736-9.93,7.177-15.042,10.126
				c-12.388,7.177-24.874,11.503-37.065,12.879l92.659,53.319l-6.83-109.653v-0.394
				C415.301,909.573,415.105,907.115,414.711,904.657z"/>
			<path style="fill:#6DD6E2;" d="M402.717,925.008c0,0.491,0,1.081-0.098,1.573c-0.492,0.492-0.885,0.983-1.377,1.474
				c-3.441,3.539-6.98,6.981-10.618,10.127c-2.359,2.163-4.817,4.129-7.275,6.095c-0.59,0.492-1.18,0.885-1.77,1.377
				c-4.916,3.736-9.93,7.177-15.042,10.126c-12.388,7.177-24.874,11.503-37.065,12.879c-8.455,1.081-16.91,0.787-25.07-0.885
				c-9.635-1.966-18.974-5.801-28.118-11.503c-0.295-0.196-0.688-0.393-0.983-0.59c-0.197-0.099-0.393-0.196-0.59-0.393
				c-2.163-1.377-4.326-2.851-6.488-4.523c-2.262-1.671-4.621-3.638-6.882-5.604c-2.065-1.77-4.129-3.638-6.095-5.603
				c-0.295-0.295-0.59-0.492-0.787-0.787c-2.261-2.262-4.523-4.621-6.784-7.177c-7.374-8.258-4.523-26.938,6.391-41.685
				c4.129-5.604,8.749-9.733,13.272-12.388c4.523-2.556,8.947-3.735,12.781-3.048c0.394,0,0.688,0.098,1.082,0.197
				c0.688,0.098,1.277,0.295,1.868,0.59c1.573,0.688,2.949,1.671,4.129,2.949c5.309,5.998,10.716,11.011,15.927,15.141
				c-3.146-1.278-6.292-2.753-9.537-4.621l18.975,11.011c0.59,0.394,1.278,0.688,1.867,0.984c0.59,0.393,1.18,0.688,1.868,0.983
				c1.082,0.59,2.065,1.081,3.146,1.475c0.295,0.196,0.492,0.295,0.787,0.393c0.295,0.098,0.492,0.197,0.688,0.295
				c1.573,0.688,3.146,1.18,4.719,1.77c1.868,0.491,3.736,0.983,5.506,1.376c1.377,0.295,2.753,0.492,4.031,0.591
				c4.522,0.59,8.848,0.491,12.978-0.098c0.393-0.099,0.884-0.197,1.278-0.295c3.932-0.688,7.668-1.868,11.109-3.342h0.098
				c1.966-0.885,3.834-1.868,5.702-2.95c5.899-3.342,11.503-7.865,17.107-13.665c0.59-0.59,1.278-1.278,1.868-1.966
				C395.54,895.907,402.717,911.637,402.717,925.008z"/>
		</g>
	</g>
	<g>
		<g>
			<g>
				<g style="enable-background:new    ;">
					<g>
						<polygon style="fill:#BDCEEC;" points="3291.904,4955.518 3809.136,4654.933 3810.096,4585.943 3292.864,4886.528 						"/>
					</g>
					<g>
						<polygon style="fill:#CCDBF2;" points="2011.823,4192.52 2335.921,4394.105 2393.877,4359.804 2377.37,4350.268 
							2014.37,4124.481 						"/>
					</g>
				</g>
			</g>
			<g>
				<g style="enable-background:new    ;">
					<polygon style="fill:#ECF3FB;" points="2011.823,4585.943 2529.064,4886.528 2852.202,4695.262 2910.96,4660.477 
						2969.726,4695.262 3292.864,4886.528 3810.096,4585.943 3485.998,4394.114 3428.042,4359.804 3444.558,4350.268 
						3807.558,4124.481 3290.326,3823.896 2927.317,4049.683 2910.96,4059.131 2894.602,4049.683 2531.602,3823.896 
						2014.37,4124.481 2377.37,4350.268 2393.877,4359.804 2335.921,4394.105 					"/>
					<g>
						<polygon style="fill:#BDCEEC;" points="2011.823,4585.943 2012.784,4654.933 2530.025,4955.518 2529.064,4886.528 						"/>
					</g>
					<g>
						<polygon style="fill:#BDCEEC;" points="3428.042,4359.804 3485.998,4394.114 3810.096,4192.52 3807.558,4124.481 
							3444.558,4350.268 						"/>
						<polygon style="fill:#CCDBF2;" points="2529.064,4886.528 2530.025,4955.518 2910.96,4730.04 3291.904,4955.518 
							3292.864,4886.528 2969.726,4695.262 2910.96,4660.477 2852.202,4695.262 						"/>
					</g>
				</g>
			</g>
			<g>
				<g style="enable-background:new    ;">
					<g>
						<path style="fill:#CCDBF2;" d="M3350.531,3494.95l-1.633,796.316c-0.086,30.321-20.011,60.596-59.815,83.728l1.634-796.316
							C3330.52,3555.546,3350.445,3525.271,3350.531,3494.95z"/>
					</g>
					<g>
						<path style="fill:#CCDBF2;" d="M2525.96,4403.259l1.633-796.316c-0.087,30.707,20.181,61.461,60.764,84.891l-1.633,796.316
							C2546.142,4464.721,2525.873,4433.966,2525.96,4403.259z"/>
					</g>
					<g>
						<polygon style="fill:#BDCEEC;" points="3290.716,3578.677 3289.083,4374.994 2986.443,4550.869 2988.076,3754.553 						"/>
					</g>
					<g>
						<polygon style="fill:#BDCEEC;" points="2696.97,3754.542 2695.337,4550.858 2586.724,4488.151 2588.357,3691.835 						"/>
					</g>
					<g>
						<path style="fill:#CCDBF2;" d="M2988.076,3754.553l-1.633,796.316c-80.123,46.562-210.459,46.551-291.106-0.01l1.634-796.316
							C2777.617,3801.104,2907.954,3801.115,2988.076,3754.553z"/>
					</g>
					<g>
						<path style="fill:#999999;" d="M3289.767,3410.046c80.647,46.562,81.071,122.069,0.949,168.631l-302.64,175.875
							c-80.123,46.562-210.459,46.551-291.106-0.01l-108.613-62.708c-80.647-46.562-81.071-122.045-0.948-168.607l302.64-175.875
							c80.123-46.562,210.459-46.575,291.106-0.014L3289.767,3410.046z"/>
					</g>
				</g>
			</g>
			<g>
				<g style="enable-background:new    ;">
					<g>
						<polygon style="fill:#F2F2F2;" points="2729.623,1942.407 2664.002,1904.273 2664.005,1904.101 2729.626,1942.236 						"/>
					</g>
					<g>
						<path style="fill:#F2F2F2;" d="M2664.024,1902.998c21.874,12.712,43.747,25.423,65.621,38.135
							c-0.006,0.368-0.012,0.736-0.019,1.104l-65.621-38.135C2664.012,1903.733,2664.018,1903.366,2664.024,1902.998z"/>
					</g>
					<g>
						<path style="fill:#F2F2F2;" d="M2664.024,1902.998c0.049-2.996,0.069-5.978,0.061-8.959l65.621,38.135
							c0.008,2.981-0.012,5.963-0.061,8.959C2707.771,1928.421,2685.898,1915.71,2664.024,1902.998z"/>
					</g>
					<g>
						<polygon style="fill:#F2F2F2;" points="2729.703,1931.306 2664.083,1893.171 2664.227,1893.088 2729.848,1931.223 						"/>
					</g>
					<g>
						<path style="fill:#F2F2F2;" d="M2729.703,1931.306l0.145-0.083l-0.222,11.055c0,0.042-0.001,0.086-0.002,0.13l0.002-0.171
							c0.063-3.367,0.089-6.716,0.08-10.062L2729.703,1931.306z"/>
					</g>
					<g>
						<polygon style="fill:#F2F2F2;" points="2729.706,1932.174 2664.085,1894.039 2664.083,1893.171 2729.703,1931.306 						"/>
					</g>
					<g>
						<polygon style="fill:#F2F2F2;" points="2710.796,1963.517 2645.175,1925.382 2663.679,1914.698 2729.3,1952.833 						"/>
					</g>
					<g>
						<path style="fill:#F2F2F2;" d="M2398.79,2483.999l-65.621-38.135c168.107-97.057,303.378-323.776,312.005-520.483
							l65.621,38.135C2702.168,2160.223,2566.898,2386.942,2398.79,2483.999z"/>
					</g>
					<g>
						<polygon style="fill:#F2F2F2;" points="2329.892,2186.391 2264.271,2148.256 2645.176,1925.382 2710.796,1963.516 						"/>
					</g>
					<path style="fill:#BDCEEC;" d="M2710.896,1833.565c-0.28-98.667-35.236-168.16-91.537-200.879l-65.621-38.135
						c56.302,32.719,91.257,102.212,91.537,200.879l0.307,108.422l65.621,38.135L2710.896,1833.565z"/>
					<g>
						<polygon style="fill:#F2F2F2;" points="1311.969,2774.089 1246.348,2735.955 2264.271,2148.256 2329.892,2186.391 						"/>
					</g>
					<g>
						<path style="fill:#F2F2F2;" d="M2141.491,2189.135c38.023-4.504,79.456-18.825,122.772-43.834l65.621,38.135
							c-43.316,25.009-84.749,39.33-122.772,43.834C2185.238,2214.558,2163.365,2201.847,2141.491,2189.135z"/>
					</g>
					<g>
						<path style="fill:#F2F2F2;" d="M1435.938,2675.29c0.021-0.021,0.041-0.044,0.062-0.065l0.002-0.001
							C1435.981,2675.245,1435.959,2675.268,1435.938,2675.29z"/>
					</g>
					<g>
						<polygon style="fill:#CCDBF2;" points="1435.931,2675.285 1370.31,2637.151 2140.604,2192.422 2206.224,2230.556 						"/>
					</g>
					<g>
						<path style="fill:#F2F2F2;" d="M2141.491,2189.135c0.559,0.116,1.151,0.669,1.644,0.956c0.523,0.304,1.22,0.709,1.743,1.013
							c0.27,0.157,0.629,0.365,0.898,0.522c4.248,2.469,8.495,4.937,12.743,7.406c16.198,9.413,32.394,18.825,48.592,28.238
							c-2.158,0.256-4.305,0.48-6.441,0.672c-21.874-12.712-43.747-25.423-65.621-38.135
							C2137.186,2189.615,2139.333,2189.391,2141.491,2189.135z"/>
					</g>
					<g>
						<path style="fill:#F2F2F2;" d="M2133.363,2189.954c0.562-0.047,1.124-0.095,1.687-0.146
							c21.874,12.712,43.747,25.423,65.621,38.135c-0.563,0.051-1.125,0.099-1.687,0.146
							C2177.109,2215.376,2155.237,2202.665,2133.363,2189.954z"/>
					</g>
					<g>
						<path style="fill:#F2F2F2;" d="M2133.363,2189.954c0.074,0.017,0.153,0.089,0.219,0.127c0.646,0.375,1.292,0.751,1.938,1.126
							c1.734,1.008,3.469,2.016,5.203,3.024c19.42,11.286,38.84,22.571,58.26,33.857c-39.578,3.27-75.242-4.311-105.199-21.722
							l-65.621-38.135C2058.121,2185.643,2093.784,2193.223,2133.363,2189.954z"/>
					</g>
					<g>
						<path style="fill:#F2F2F2;" d="M2106.886,2183.837l-65.621-38.135c57.031,33.142,135.962,28.555,222.937-21.66l65.621,38.135
							C2242.848,2212.392,2163.917,2216.979,2106.886,2183.837z"/>
					</g>
					<g>
						<polygon style="fill:#F2F2F2;" points="1617.512,2935.07 1551.892,2896.935 2333.17,2445.865 2398.79,2483.999 						"/>
					</g>
					<g>
						<path style="fill:#F2F2F2;" d="M2041.301,2145.723c-13.814-8.023-26.344-18.259-37.392-30.595
							c21.874,12.712,43.747,25.423,65.621,38.135c11.048,12.336,23.578,22.572,37.392,30.595
							C2087.236,2172.417,2060.989,2157.161,2041.301,2145.723z"/>
					</g>
					<g>
						<polygon style="fill:#F2F2F2;" points="2029.478,1866.21 1963.857,1828.076 1966.576,1826.506 2032.197,1864.641 						"/>
					</g>
					<g>
						<path style="fill:#F2F2F2;" d="M1949.728,1944.833c-0.105-37.043,4.646-76.289,14.13-116.757l65.621,38.135
							c-9.484,40.468-14.234,79.714-14.13,116.757c0.211,74.479,20.183,132.333,54.181,170.295
							c-21.874-12.712-43.747-25.423-65.621-38.135C1969.911,2077.167,1949.939,2019.312,1949.728,1944.833z"/>
					</g>
					<g>
						<path style="fill:#F2F2F2;" d="M2093.79,2206.37l-65.621-38.135c-59.625-34.65-96.646-108.24-96.942-212.72
							c-0.119-41.94,5.643-86.53,17.129-132.562l65.621,38.135c-11.486,46.032-17.248,90.622-17.129,132.562
							C1997.144,2098.13,2034.166,2171.72,2093.79,2206.37z"/>
					</g>
					<path style="fill:#CCDBF2;" d="M2711.202,1941.987l-381.379,220.193c-101.426,58.554-191.882,55.036-249.464,2.03
						c0,0-4.005-3.48-8.966-8.941c-35.112-37.916-55.835-96.482-56.045-172.303c-0.111-37.043,4.649-76.288,14.131-116.75
						l2.718-1.574c-9.568,40.512-14.365,79.769-14.266,116.836c0.234,78.637,22.678,138.556,60.46,175.907
						c51.961,14.549,118.853,5.325,188.377-34.817l0,0l378.808-218.718L2711.202,1941.987z"/>
					<g>
						<path style="fill:#F2F2F2;" d="M1393.96,2957.811l-65.621-38.135c56.88,33.055,135.866,27.885,223.552-22.741l65.621,38.135
							C1529.826,2985.696,1450.84,2990.866,1393.96,2957.811z"/>
					</g>
					<g>
						<path style="fill:#BDCEEC;" d="M2091.955,2209.516l-65.62-38.135c-60.083-34.917-97.38-109.085-97.678-214.383
							c-0.102-35.927,4.077-73.788,12.448-112.827l65.621,38.135c-8.371,39.039-12.55,76.901-12.448,112.827
							C1994.575,2100.432,2031.872,2174.6,2091.955,2209.516z"/>
					</g>
					<g>
						<polygon style="fill:#F2F2F2;" points="2013.977,1861.088 1948.356,1822.953 1950.457,1814.519 2016.077,1852.654 						"/>
					</g>
					<g>
						<path style="fill:#F2F2F2;" d="M1578.662,2128.787c-1.799-24.542-5.792-47.435-11.943-68.463l65.621,38.135
							c6.151,21.029,10.143,43.921,11.943,68.463C1622.416,2154.196,1600.543,2141.485,1578.662,2128.787z"/>
					</g>
					<g>
						<path style="fill:#F2F2F2;" d="M1463.889,2517.595c6.409-10.062,12.639-20.327,18.677-30.781
							c1.175,0.683,2.737,1.601,3.909,2.288c4.834,2.83,30.525,17.856,61.711,35.847c-6.038,10.454-12.268,20.719-18.677,30.781
							C1507.635,2543.019,1485.763,2530.307,1463.889,2517.595z"/>
					</g>
					<g>
						<path style="fill:#F2F2F2;" d="M1463.889,2517.595c21.874,12.712,43.747,25.423,65.621,38.135
							c-1.207,1.895-2.42,3.782-3.639,5.662c-21.874-12.712-43.747-25.423-65.621-38.135
							C1461.469,2521.377,1462.682,2519.49,1463.889,2517.595z"/>
					</g>
					<g>
						<path style="fill:#F2F2F2;" d="M1460.25,2523.257c21.874,12.712,43.747,25.423,65.621,38.135
							c-6.286,9.692-12.738,19.19-19.344,28.481c-21.874-12.712-43.747-25.423-65.621-38.135
							C1447.512,2542.447,1453.964,2532.949,1460.25,2523.257z"/>
					</g>
					<g>
						<path style="fill:#F2F2F2;" d="M1440.906,2551.738c21.874,12.712,43.747,25.423,65.621,38.135
							c-1.133,1.594-2.271,3.183-3.414,4.764c-12.578-7.309-25.156-14.619-37.734-21.928c-5.012-2.912-10.023-5.825-15.035-8.737
							c-0.579-0.337-1.352-0.786-1.931-1.122c-2.489-1.446-4.977-2.892-7.465-4.338c-1.037-0.603-2.298-1.697-3.456-2.008
							C1438.635,2554.921,1439.773,2553.333,1440.906,2551.738z"/>
					</g>
					<g>
						<path style="fill:#F2F2F2;" d="M1437.492,2556.503c10.551,6.132,21.101,12.263,31.652,18.395
							c1.304,0.758,3.042,1.768,4.346,2.526c1.367,0.794,3.19,1.854,4.557,2.648c1.405,0.816,3.279,1.905,4.684,2.722
							c1.418,0.824,3.308,1.923,4.726,2.747c1.405,0.817,3.279,1.906,4.684,2.722c2.254,1.31,4.508,2.62,6.762,3.93
							c1.262,0.734,2.799,2.066,4.209,2.446c-6.781,9.389-13.718,18.562-20.799,27.502c-21.524-12.508-43.047-25.016-64.571-37.524
							c-0.188-0.11-0.377-0.219-0.565-0.329c-0.118-0.068-0.236-0.137-0.354-0.206c-0.043-0.025-0.073-0.076-0.131-0.076
							C1423.774,2575.064,1430.712,2565.892,1437.492,2556.503z"/>
					</g>
					<g>
						<path style="fill:#F2F2F2;" d="M1416.693,2584.005c21.874,12.712,43.747,25.423,65.621,38.135
							c-0.171,0.216-0.342,0.432-0.513,0.647c-21.874-12.712-43.747-25.423-65.621-38.135
							C1416.351,2584.437,1416.522,2584.221,1416.693,2584.005z"/>
					</g>
					<g>
						<path style="fill:#F2F2F2;" d="M1394.013,2611.289c7.529-8.627,14.923-17.511,22.167-26.636
							c21.874,12.712,43.747,25.423,65.621,38.135c-7.244,9.126-14.637,18.01-22.167,26.637
							C1437.759,2636.712,1415.887,2624,1394.013,2611.289z"/>
					</g>
					<g>
						<path style="fill:#F2F2F2;" d="M1442.794,2668.056c-2.255,2.41-4.516,4.804-6.792,7.167l-0.002,0.001
							c2.289-2.375,4.563-4.782,6.829-7.205L1442.794,2668.056z"/>
					</g>
					<g>
						<path style="fill:#F2F2F2;" d="M1449.365,2660.931c-2.18,2.396-4.37,4.772-6.571,7.125l0.035-0.037
							C1445.018,2665.678,1447.197,2663.315,1449.365,2660.931z"/>
					</g>
					<g>
						<path style="fill:#F2F2F2;" d="M1394.013,2611.289c21.874,12.712,43.747,25.423,65.621,38.135
							c-0.708,0.811-1.417,1.619-2.127,2.426l-65.621-38.135C1392.596,2612.908,1393.305,2612.1,1394.013,2611.289z"/>
					</g>
					<g>
						<path style="fill:#F2F2F2;" d="M1449.365,2660.931c2.728-2.999,5.446-6.02,8.142-9.082
							C1454.811,2654.912,1452.094,2657.933,1449.365,2660.931z"/>
					</g>
					<g>
						<path style="fill:#F2F2F2;" d="M1435.931,2675.286l-65.621-38.135c7.305-7.574,14.496-15.399,21.576-23.437l65.621,38.135
							C1450.428,2659.887,1443.236,2667.713,1435.931,2675.286z"/>
					</g>
					<g>
						<path style="fill:#F2F2F2;" d="M1457.507,2651.849c33.225-37.729,63.852-80.45,90.679-126.9
							C1521.364,2571.407,1490.739,2614.115,1457.507,2651.849z"/>
					</g>
					<g>
						<polygon style="fill:#F2F2F2;" points="1303.743,2778.838 1238.122,2740.704 1246.348,2735.955 1311.969,2774.089 						"/>
					</g>
					<g>
						<path style="fill:#DDE6F5;" d="M2710.796,1963.516c-8.627,196.707-143.897,423.426-312.005,520.483l-781.278,451.071
							c-167.246,96.56-302.838,27.757-313.77-156.232l8.226-4.749l1017.923-587.698L2710.796,1963.516z"/>
					</g>
					<g>
						<path style="fill:#F2F2F2;" d="M1328.359,2919.688c-51.619-29.987-85.036-91.449-90.237-178.984l65.621,38.135
							c5.201,87.534,38.619,148.997,90.237,178.984C1374.294,2946.382,1348.046,2931.128,1328.359,2919.688z"/>
					</g>
					<g>
						<polygon style="fill:#F2F2F2;" points="1311.969,2774.088 1246.348,2735.954 1246.271,2708.765 1311.892,2746.899 						"/>
					</g>
					<g>
						<path style="fill:#ECF3FB;" d="M2398.79,2483.999c168.107-97.057,303.378-323.776,312.006-520.482l18.504-10.683
							c-4.116,98.392-39.034,208.056-98.931,310.137c-62.154,105.931-144.372,191.974-231.519,242.288l-781.278,451.071
							c-87.146,50.314-169.6,59.345-232.152,25.413c-59.657-32.361-94.971-100.337-100.21-192.205l18.531-10.699
							c10.932,183.989,146.525,252.791,313.77,156.232L2398.79,2483.999z"/>
					</g>
					<g>
						<polygon style="fill:#F2F2F2;" points="1285.211,2789.538 1219.59,2751.403 1238.122,2740.704 1303.742,2778.838 						"/>
					</g>
					<g>
						<polygon style="fill:#CCDBF2;" points="1282.392,2791.165 1216.771,2753.031 1216.464,2739.902 1282.085,2778.037 						"/>
					</g>
					<g>
						<path style="fill:#CCDBF2;" d="M1381.301,2979.429l-65.621-38.135c-57.163-33.219-90.974-100.158-96.091-189.891
							l65.621,38.135C1290.328,2879.27,1324.139,2946.209,1381.301,2979.429z"/>
					</g>
					<g>
						<polygon style="fill:#F2F2F2;" points="1305.599,2750.534 1239.978,2712.4 1246.271,2708.766 1311.892,2746.901 						"/>
					</g>
					<g>
						<path style="fill:#CCDBF2;" d="M1282.085,2778.037l-65.621-38.135c-0.063-3.316-0.127-6.632-0.136-10l65.621,38.135
							C1281.958,2771.405,1282.022,2774.72,1282.085,2778.037z"/>
					</g>
					<g>
						<path style="fill:#F2F2F2;" d="M1632.34,2098.458c6.156,21.017,10.145,43.919,11.943,68.463
							C1642.483,2142.379,1638.49,2119.487,1632.34,2098.458z"/>
					</g>
					<path style="fill:#BDCEEC;" d="M1607.693,2112.792c-0.847-2.642-1.732-5.248-2.655-7.821l-65.621-38.135
						c0.923,2.573,1.807,5.179,2.655,7.821c7.952,24.788,12.565,52.548,14.051,97.424c0.27,95.406-31.82,203.785-90.351,305.163
						c-58.51,101.367-136.472,183.584-219.501,231.521l65.621,38.135c83.028-47.937,160.99-130.154,219.501-231.521
						c58.531-101.378,90.621-209.757,90.35-305.163C1620.258,2165.34,1615.645,2137.58,1607.693,2112.792z"/>
					<g>
						<polygon style="fill:#CCDBF2;" points="1281.949,2768.037 1216.328,2729.902 1216.018,2620.613 1281.639,2658.747 						"/>
					</g>
					<g>
						<polygon style="fill:#F2F2F2;" points="1605.038,2104.97 1539.417,2066.836 1534.198,2052.263 1599.819,2090.397 						"/>
					</g>
					<path style="fill:#CCDBF2;" d="M2566.838,1572.014c-60.393-35.097-143.978-30.237-236.08,22.938l-354.597,204.727
						l-441.962,252.584h0c-177.376,111.635-318.765,362.267-318.181,568.35l65.621,38.135
						c-0.584-206.082,140.805-456.714,318.18-568.35l416.259-237.744l22.264-12.854l358.037-206.713
						c92.102-53.175,175.686-58.035,236.079-22.938L2566.838,1572.014z"/>
					<path style="fill:#ECF3FB;" d="M2729.699,1931.299l-0.307-108.412c-0.59-210.343-149.981-295.473-333.009-189.804
						l-358.036,206.714l-22.273,12.852l-416.257,237.744c-177.37,111.634-318.767,362.267-318.177,568.354l0.307,109.285
						c0.012,3.37,0.074,6.69,0.135,9.999l0.307,13.135l2.816-1.624l18.534-10.7l8.228-4.76l1017.928-587.699l-0.012-2.951
						l399.568-230.697l0.172-10.503C2729.687,1938.863,2729.712,1935.518,2729.699,1931.299z M1311.895,2746.904l-6.297,3.628
						l-0.295-105.448c-0.553-194.084,134.436-430.708,302.385-532.295c7.957,24.794,12.569,52.552,14.057,97.429
						c0.271,95.4-31.816,203.788-90.358,305.165C1472.884,2616.748,1394.923,2698.964,1311.895,2746.904z M1435.926,2675.29
						c41.594-43.119,79.719-93.998,112.261-150.338c62.969-109.101,97.491-225.704,96.654-348.898
						c-0.061-1.279-0.135-2.546-0.566-9.138c-1.796-24.536-5.793-47.435-11.93-68.466l374.381-216.147
						c-8.375,39.048-12.557,76.903-12.446,112.827c0.455,161.837,88.304,250.129,211.941,235.432L1435.926,2675.29z
						 M2329.823,2162.18c-172.832,99.779-313.909,19.395-314.474-179.214c-0.111-37.043,4.649-76.288,14.131-116.75l2.718-1.574
						l364.247-210.293c172.832-99.791,313.884-19.383,314.45,179.215l0.307,108.424L2329.823,2162.18z"/>
				</g>
			</g>
			<g>
				<g>
					<g style="enable-background:new    ;">
						<g>
							<polygon style="fill:#CCDBF2;" points="3996.214,3090.569 2770.946,2378.521 3630.856,1843.66 4856.124,2555.708 							"/>
						</g>
						<g>
							<polygon style="fill:#DBDBDB;" points="3080.331,3619.354 1855.063,2907.307 2770.946,2378.521 3996.214,3090.569 							"/>
						</g>
						<g>
							<polygon style="fill:#DBDBDB;" points="1827.512,4360.895 602.244,3648.847 1855.063,2907.307 3080.331,3619.354 							"/>
						</g>
						<g>
							<polygon style="fill:#BDCEEC;" points="1829.788,4524.33 604.521,3812.282 602.244,3648.847 1827.512,4360.895 							"/>
						</g>
						<g>
							<polygon style="fill:#DDE6F5;" points="4856.124,2555.708 4862.143,2716.871 3999.45,3253.464 3081.718,3783.318 
								1829.788,4524.33 1827.512,4360.895 3080.331,3619.354 3996.214,3090.569 							"/>
						</g>
					</g>
				</g>
				<g>
					<g style="enable-background:new    ;">
						<g>
							<path style="fill:#1F82AC;" d="M2872.481,2304.199c1.41,62.548,34.266,123.068,92.619,156.982l902.979,524.75
								c4.098,2.38,8.258,4.592,12.462,6.619l88.511-51.099l589.219-919.575c46.181-72.075,39.571-162.367-9.06-226.342
								l-857.494-498.319c-86.194-50.094-196.553-23.408-250.341,60.538l-539.494,841.974
								C2881.1,2232.159,2871.661,2268.514,2872.481,2304.199z"/>
						</g>
						<g>
							<path style="fill:#2084AF;" d="M600.055,3485.307l2.274,163.433l1251.931-741.01l942.7-544.262l48.164-75.168
								l692.44-1080.672l-1.921-1.481c-74.137-10.179-150.601,22.474-193.372,89.217l-598.49,934.046l-890.905,514.359
								L600.055,3485.307z"/>
						</g>
						<g>
							<path style="fill:#26DD81;" d="M2743.781,2229.409l101.343,58.89l27.356,15.899l1096.571,637.251l589.219-919.575
								c46.181-72.075,39.571-162.367-9.06-226.342c-3.473-4.565-7.157-8.998-11.052-13.282c-0.414-0.458-0.837-0.908-1.269-1.366
								c-4.521-4.9-9.333-9.598-14.427-14.066c-9.5-8.328-19.944-15.881-31.305-22.483l-883.149-513.231
								c-22.959-13.343-47.53-21.557-72.366-24.959c-74.137-10.179-150.601,22.474-193.372,89.217L2743.781,2229.409z"/>
						</g>
						<g>
							<polygon style="fill:#2393C2;" points="4022.23,3075.513 3079.529,3619.782 1854.261,2907.734 2796.963,2363.465 							"/>
						</g>
						<g>
							<polygon style="fill:#3BE094;" points="3078.141,3455.819 1852.874,2743.771 2743.781,2229.406 3969.049,2941.453 							"/>
						</g>
						<g>
							<polygon style="fill:#2393C3;" points="3079.529,3619.782 1827.593,4360.791 602.325,3648.743 1854.261,2907.734 							"/>
						</g>
						<g>
							<polygon style="fill:#3BE094;" points="1825.323,4197.352 600.055,3485.304 1852.874,2743.771 3078.141,3455.819 							"/>
						</g>
						<g>
							<polygon style="fill:#23995B;" points="1827.593,4360.791 602.325,3648.743 600.055,3485.304 1825.323,4197.352 							"/>
						</g>
						<path style="fill:#2DCA7D;" d="M1825.326,4197.355l2.265,163.433l1251.94-741.009l942.7-544.262l96.188-150.125
							l539.495-841.974c42.453-66.249,37.553-148.847-5.279-208.813l-0.018-0.018c0.009-0.009,0-0.018-0.009-0.026
							c-0.829-1.683-47.874-53.576-130.146-107.742c5.094,4.468,9.906,9.166,14.427,14.066c0.432,0.458,0.855,0.908,1.269,1.366
							c3.896,4.283,7.58,8.716,11.052,13.282c48.631,63.975,55.241,154.267,9.06,226.342l-589.219,919.575l-88.511,51.099
							l-802.402,463.268L1825.326,4197.355z"/>
					</g>
				</g>
			</g>
			<g>
				<g style="enable-background:new    ;">
					<g>
						<polygon style="fill:#F2F2F2;" points="3895.271,2949.354 3829.65,2911.219 3829.653,2911.048 3895.273,2949.183 						"/>
					</g>
					<g>
						<path style="fill:#F2F2F2;" d="M3829.672,2909.945c21.874,12.712,43.747,25.423,65.621,38.135
							c-0.006,0.368-0.012,0.735-0.019,1.104l-65.621-38.135C3829.659,2910.68,3829.666,2910.313,3829.672,2909.945z"/>
					</g>
					<g>
						<path style="fill:#F2F2F2;" d="M3829.672,2909.945c0.049-2.996,0.069-5.978,0.061-8.959l65.621,38.135
							c0.009,2.981-0.012,5.963-0.061,8.959C3873.418,2935.368,3851.546,2922.656,3829.672,2909.945z"/>
					</g>
					<g>
						<polygon style="fill:#F2F2F2;" points="3895.351,2938.253 3829.73,2900.118 3829.875,2900.035 3895.495,2938.169 						"/>
					</g>
					<g>
						<path style="fill:#F2F2F2;" d="M3895.351,2938.253l0.145-0.083l-0.222,11.055c0,0.042-0.001,0.085-0.003,0.13l0.003-0.171
							c0.063-3.367,0.089-6.716,0.08-10.062L3895.351,2938.253z"/>
					</g>
					<g>
						<polygon style="fill:#F2F2F2;" points="3895.353,2939.121 3829.732,2900.986 3829.73,2900.118 3895.351,2938.253 						"/>
					</g>
					<g>
						<polygon style="fill:#F2F2F2;" points="3876.443,2970.463 3810.823,2932.329 3829.327,2921.645 3894.948,2959.78 						"/>
					</g>
					<g>
						<path style="fill:#F2F2F2;" d="M3564.438,3490.946l-65.621-38.135c168.107-97.057,303.378-323.776,312.005-520.482
							l65.621,38.135C3867.816,3167.17,3732.545,3393.889,3564.438,3490.946z"/>
					</g>
					<g>
						<polygon style="fill:#F2F2F2;" points="3495.54,3193.338 3429.919,3155.203 3810.823,2932.329 3876.444,2970.463 						"/>
					</g>
					<path style="fill:#BDCEEC;" d="M3876.543,2840.512c-0.28-98.667-35.235-168.16-91.537-200.879l-65.621-38.135
						c56.302,32.719,91.257,102.212,91.537,200.879l0.307,108.422l65.62,38.135L3876.543,2840.512z"/>
					<g>
						<polygon style="fill:#F2F2F2;" points="2477.616,3781.036 2411.996,3742.901 3429.919,3155.203 3495.54,3193.338 						"/>
					</g>
					<g>
						<path style="fill:#F2F2F2;" d="M3307.138,3196.082c38.023-4.504,79.456-18.825,122.772-43.834l65.621,38.135
							c-43.316,25.009-84.749,39.33-122.772,43.834C3350.885,3221.505,3329.012,3208.794,3307.138,3196.082z"/>
					</g>
					<g>
						<path style="fill:#F2F2F2;" d="M2601.586,3682.236c0.021-0.021,0.041-0.044,0.062-0.065l0.002-0.001
							C2601.628,3682.192,2601.607,3682.214,2601.586,3682.236z"/>
					</g>
					<g>
						<polygon style="fill:#CCDBF2;" points="2601.578,3682.232 2535.958,3644.098 3306.251,3199.368 3371.872,3237.503 						"/>
					</g>
					<g>
						<path style="fill:#F2F2F2;" d="M3307.138,3196.082c0.559,0.116,1.151,0.669,1.644,0.956c0.523,0.304,1.22,0.709,1.743,1.013
							c0.27,0.157,0.629,0.366,0.899,0.522c4.248,2.469,8.495,4.937,12.743,7.406c16.198,9.413,32.394,18.825,48.592,28.238
							c-2.158,0.256-4.305,0.48-6.441,0.672c-21.874-12.712-43.747-25.423-65.621-38.135
							C3302.833,3196.562,3304.98,3196.338,3307.138,3196.082z"/>
					</g>
					<g>
						<path style="fill:#F2F2F2;" d="M3299.01,3196.9c0.562-0.046,1.124-0.095,1.687-0.146
							c21.874,12.712,43.747,25.423,65.621,38.135c-0.563,0.051-1.125,0.099-1.687,0.146
							C3342.757,3222.323,3320.884,3209.612,3299.01,3196.9z"/>
					</g>
					<g>
						<path style="fill:#F2F2F2;" d="M3299.01,3196.9c0.074,0.017,0.153,0.089,0.219,0.127c0.646,0.375,1.292,0.751,1.938,1.126
							c1.734,1.008,3.469,2.016,5.203,3.024c19.42,11.286,38.84,22.571,58.26,33.857c-39.578,3.27-75.242-4.311-105.199-21.722
							l-65.621-38.135C3223.768,3192.589,3259.432,3200.17,3299.01,3196.9z"/>
					</g>
					<g>
						<path style="fill:#F2F2F2;" d="M3272.533,3190.784l-65.621-38.135c57.031,33.143,135.962,28.555,222.937-21.66l65.621,38.135
							C3408.496,3219.339,3329.564,3223.926,3272.533,3190.784z"/>
					</g>
					<g>
						<polygon style="fill:#F2F2F2;" points="2783.16,3942.017 2717.539,3903.882 3498.817,3452.811 3564.438,3490.946 						"/>
					</g>
					<g>
						<path style="fill:#F2F2F2;" d="M3206.948,3152.67c-13.814-8.023-26.344-18.258-37.392-30.595
							c21.874,12.712,43.747,25.423,65.621,38.135c11.048,12.337,23.578,22.572,37.392,30.595
							C3252.883,3179.364,3226.636,3164.107,3206.948,3152.67z"/>
					</g>
					<g>
						<polygon style="fill:#F2F2F2;" points="3195.125,2873.157 3129.505,2835.023 3132.223,2833.453 3197.844,2871.588 						"/>
					</g>
					<g>
						<path style="fill:#F2F2F2;" d="M3115.375,2951.78c-0.105-37.043,4.646-76.289,14.129-116.757l65.621,38.135
							c-9.484,40.468-14.234,79.714-14.129,116.757c0.211,74.479,20.183,132.333,54.181,170.295
							c-21.874-12.712-43.747-25.423-65.621-38.135C3135.559,3084.113,3115.587,3026.259,3115.375,2951.78z"/>
					</g>
					<g>
						<path style="fill:#F2F2F2;" d="M3259.438,3213.317l-65.621-38.135c-59.625-34.65-96.646-108.24-96.942-212.72
							c-0.119-41.94,5.643-86.53,17.129-132.562l65.621,38.135c-11.486,46.032-17.248,90.622-17.129,132.562
							C3162.792,3105.077,3199.813,3178.667,3259.438,3213.317z"/>
					</g>
					<path style="fill:#CCDBF2;" d="M3876.85,2948.934l-381.378,220.193c-101.427,58.554-191.883,55.036-249.465,2.03
						c0,0-4.005-3.479-8.966-8.941c-35.112-37.917-55.835-96.482-56.045-172.303c-0.111-37.043,4.649-76.288,14.131-116.75
						l2.718-1.574c-9.569,40.512-14.365,79.769-14.267,116.837c0.234,78.637,22.678,138.556,60.46,175.906
						c51.962,14.549,118.854,5.325,188.377-34.817l0,0l378.808-218.718L3876.85,2948.934z"/>
					<g>
						<path style="fill:#F2F2F2;" d="M2559.607,3964.758l-65.621-38.135c56.88,33.055,135.866,27.885,223.552-22.741l65.621,38.135
							C2695.473,3992.643,2616.487,3997.813,2559.607,3964.758z"/>
					</g>
					<g>
						<path style="fill:#BDCEEC;" d="M3257.602,3216.463l-65.621-38.135c-60.083-34.917-97.38-109.085-97.678-214.383
							c-0.102-35.927,4.077-73.788,12.448-112.827l65.621,38.135c-8.371,39.039-12.55,76.901-12.448,112.827
							C3160.223,3107.378,3197.52,3181.547,3257.602,3216.463z"/>
					</g>
					<g>
						<polygon style="fill:#F2F2F2;" points="3179.625,2868.035 3114.004,2829.9 3116.104,2821.466 3181.725,2859.6 						"/>
					</g>
					<g>
						<path style="fill:#F2F2F2;" d="M2744.309,3135.733c-1.799-24.542-5.792-47.435-11.943-68.463l65.621,38.134
							c6.151,21.029,10.143,43.921,11.943,68.463C2788.063,3161.143,2766.191,3148.432,2744.309,3135.733z"/>
					</g>
					<g>
						<path style="fill:#F2F2F2;" d="M2629.536,3524.542c6.409-10.062,12.639-20.327,18.677-30.781
							c1.175,0.683,2.737,1.601,3.909,2.288c4.834,2.83,30.525,17.856,61.711,35.847c-6.038,10.454-12.268,20.719-18.677,30.781
							C2673.283,3549.965,2651.41,3537.254,2629.536,3524.542z"/>
					</g>
					<g>
						<path style="fill:#F2F2F2;" d="M2629.536,3524.542c21.874,12.712,43.747,25.423,65.621,38.135
							c-1.207,1.894-2.42,3.781-3.639,5.661c-21.874-12.711-43.747-25.423-65.621-38.134
							C2627.117,3528.324,2628.33,3526.437,2629.536,3524.542z"/>
					</g>
					<g>
						<path style="fill:#F2F2F2;" d="M2625.897,3530.204c21.874,12.712,43.747,25.423,65.621,38.135
							c-6.286,9.692-12.738,19.19-19.344,28.481c-21.874-12.712-43.747-25.423-65.621-38.135
							C2613.159,3549.394,2619.611,3539.896,2625.897,3530.204z"/>
					</g>
					<g>
						<path style="fill:#F2F2F2;" d="M2606.554,3558.685c21.874,12.712,43.747,25.423,65.621,38.135
							c-1.134,1.594-2.271,3.183-3.414,4.765c-12.578-7.31-25.156-14.619-37.734-21.928c-5.011-2.912-10.023-5.824-15.034-8.737
							c-0.579-0.336-1.352-0.785-1.931-1.122c-2.489-1.446-4.977-2.892-7.465-4.338c-1.037-0.602-2.298-1.696-3.456-2.008
							C2604.282,3561.867,2605.42,3560.279,2606.554,3558.685z"/>
					</g>
					<g>
						<path style="fill:#F2F2F2;" d="M2603.14,3563.45c10.551,6.131,21.101,12.263,31.652,18.394
							c1.304,0.758,3.042,1.768,4.346,2.526c1.367,0.794,3.19,1.854,4.557,2.648c1.405,0.817,3.279,1.905,4.684,2.722
							c1.418,0.824,3.308,1.923,4.726,2.747c1.405,0.816,3.279,1.905,4.684,2.722c2.254,1.31,4.508,2.62,6.762,3.93
							c1.262,0.734,2.799,2.066,4.209,2.446c-6.781,9.389-13.718,18.561-20.8,27.502c-21.524-12.508-43.047-25.016-64.571-37.525
							c-0.188-0.11-0.377-0.219-0.565-0.329c-0.118-0.068-0.236-0.137-0.354-0.206c-0.043-0.025-0.073-0.076-0.131-0.076
							C2589.422,3582.011,2596.359,3572.839,2603.14,3563.45z"/>
					</g>
					<g>
						<path style="fill:#F2F2F2;" d="M2582.34,3590.952c21.874,12.712,43.747,25.423,65.621,38.135
							c-0.171,0.216-0.342,0.432-0.513,0.647c-21.874-12.711-43.747-25.423-65.621-38.135
							C2581.998,3591.383,2582.169,3591.168,2582.34,3590.952z"/>
					</g>
					<g>
						<path style="fill:#F2F2F2;" d="M2559.66,3618.236c7.529-8.627,14.923-17.511,22.167-26.636
							c21.874,12.712,43.747,25.423,65.621,38.135c-7.244,9.126-14.637,18.01-22.167,26.637
							C2603.407,3643.659,2581.534,3630.948,2559.66,3618.236z"/>
					</g>
					<g>
						<path style="fill:#F2F2F2;" d="M2608.442,3675.003c-2.254,2.41-4.516,4.804-6.792,7.166l-0.002,0.001
							c2.289-2.375,4.563-4.782,6.829-7.205L2608.442,3675.003z"/>
					</g>
					<g>
						<path style="fill:#F2F2F2;" d="M2615.013,3667.878c-2.18,2.396-4.37,4.772-6.571,7.125l0.035-0.037
							C2610.666,3672.625,2612.844,3670.262,2615.013,3667.878z"/>
					</g>
					<g>
						<path style="fill:#F2F2F2;" d="M2559.66,3618.236c21.874,12.712,43.747,25.423,65.621,38.135
							c-0.708,0.811-1.417,1.619-2.126,2.426l-65.621-38.135C2558.244,3619.855,2558.953,3619.047,2559.66,3618.236z"/>
					</g>
					<g>
						<path style="fill:#F2F2F2;" d="M2615.013,3667.878c2.729-2.999,5.446-6.02,8.142-9.082
							C2620.459,3661.859,2617.741,3664.88,2615.013,3667.878z"/>
					</g>
					<g>
						<path style="fill:#F2F2F2;" d="M2601.579,3682.233l-65.621-38.135c7.305-7.574,14.497-15.399,21.576-23.437l65.621,38.135
							C2616.075,3666.834,2608.884,3674.659,2601.579,3682.233z"/>
					</g>
					<g>
						<path style="fill:#F2F2F2;" d="M2623.155,3658.796c33.225-37.729,63.852-80.45,90.679-126.9
							C2687.012,3578.354,2656.386,3621.062,2623.155,3658.796z"/>
					</g>
					<g>
						<polygon style="fill:#F2F2F2;" points="2469.39,3785.785 2403.77,3747.651 2411.996,3742.901 2477.616,3781.036 						"/>
					</g>
					<g>
						<path style="fill:#DDE6F5;" d="M3876.444,2970.463c-8.627,196.707-143.897,423.426-312.005,520.483l-781.278,451.071
							c-167.246,96.56-302.838,27.757-313.771-156.232l8.226-4.749l1017.923-587.698L3876.444,2970.463z"/>
					</g>
					<g>
						<path style="fill:#F2F2F2;" d="M2494.007,3926.635c-51.619-29.987-85.036-91.45-90.237-178.984l65.62,38.135
							c5.201,87.534,38.619,148.997,90.237,178.984C2539.941,3953.329,2513.693,3938.075,2494.007,3926.635z"/>
					</g>
					<g>
						<polygon style="fill:#F2F2F2;" points="2477.616,3781.035 2411.996,3742.9 2411.919,3715.711 2477.539,3753.846 						"/>
					</g>
					<g>
						<path style="fill:#ECF3FB;" d="M3564.438,3490.946c168.107-97.057,303.378-323.776,312.005-520.482l18.504-10.684
							c-4.116,98.393-39.033,208.056-98.93,310.137c-62.154,105.931-144.372,191.974-231.519,242.288l-781.278,451.071
							c-87.146,50.314-169.6,59.345-232.152,25.413c-59.657-32.361-94.971-100.337-100.21-192.205l18.531-10.699
							c10.932,183.989,146.525,252.791,313.77,156.232L3564.438,3490.946z"/>
					</g>
					<g>
						<polygon style="fill:#F2F2F2;" points="2450.858,3796.484 2385.238,3758.35 2403.769,3747.65 2469.39,3785.785 						"/>
					</g>
					<g>
						<polygon style="fill:#CCDBF2;" points="2448.04,3798.112 2382.419,3759.977 2382.112,3746.849 2447.732,3784.983 						"/>
					</g>
					<g>
						<path style="fill:#CCDBF2;" d="M2546.949,3986.375l-65.621-38.135c-57.163-33.219-90.973-100.158-96.091-189.891
							l65.621,38.135C2455.975,3886.217,2489.786,3953.156,2546.949,3986.375z"/>
					</g>
					<g>
						<polygon style="fill:#F2F2F2;" points="2471.246,3757.481 2405.625,3719.346 2411.918,3715.713 2477.539,3753.848 						"/>
					</g>
					<g>
						<path style="fill:#CCDBF2;" d="M2447.732,3784.983l-65.621-38.135c-0.063-3.317-0.127-6.632-0.136-10l65.621,38.135
							C2447.606,3778.352,2447.669,3781.667,2447.732,3784.983z"/>
					</g>
					<g>
						<path style="fill:#F2F2F2;" d="M2797.987,3105.405c6.156,21.017,10.145,43.919,11.943,68.463
							C2808.13,3149.326,2804.138,3126.433,2797.987,3105.405z"/>
					</g>
					<path style="fill:#BDCEEC;" d="M2773.34,3119.739c-0.847-2.642-1.731-5.248-2.655-7.821l-65.621-38.135
						c0.923,2.573,1.808,5.179,2.655,7.821c7.952,24.788,12.565,52.548,14.051,97.424c0.271,95.406-31.82,203.785-90.351,305.163
						c-58.51,101.367-136.472,183.584-219.5,231.521l65.621,38.135c83.028-47.937,160.99-130.154,219.501-231.521
						c58.531-101.378,90.621-209.757,90.35-305.163C2785.906,3172.287,2781.292,3144.527,2773.34,3119.739z"/>
					<g>
						<polygon style="fill:#CCDBF2;" points="2447.596,3774.984 2381.975,3736.849 2381.666,3627.56 2447.286,3665.694 						"/>
					</g>
					<g>
						<polygon style="fill:#F2F2F2;" points="2770.685,3111.917 2705.064,3073.783 2699.846,3059.21 2765.466,3097.344 						"/>
					</g>
					<path style="fill:#CCDBF2;" d="M3732.485,2578.96c-60.393-35.096-143.978-30.237-236.08,22.938l-354.597,204.727
						l-441.962,252.584h0c-177.375,111.636-318.765,362.267-318.18,568.35l65.621,38.135
						c-0.584-206.082,140.805-456.714,318.18-568.35l416.259-237.744l22.264-12.854l358.037-206.713
						c92.102-53.176,175.686-58.035,236.079-22.938L3732.485,2578.96z"/>
					<path style="fill:#ECF3FB;" d="M3895.347,2938.246l-0.307-108.412c-0.59-210.343-149.981-295.473-333.009-189.804
						l-358.036,206.715l-22.273,12.852l-416.257,237.744c-177.37,111.634-318.767,362.267-318.177,568.354l0.308,109.285
						c0.012,3.37,0.074,6.69,0.135,9.999l0.307,13.135l2.816-1.624l18.534-10.7l8.228-4.76l1017.928-587.699l-0.012-2.951
						l399.568-230.697l0.172-10.503C3895.334,2945.81,3895.359,2942.465,3895.347,2938.246z M2477.543,3753.851l-6.297,3.628
						l-0.295-105.448c-0.553-194.084,134.436-430.708,302.385-532.295c7.957,24.794,12.569,52.552,14.057,97.429
						c0.271,95.4-31.816,203.788-90.357,305.165C2638.531,3623.695,2560.57,3705.911,2477.543,3753.851z M2601.574,3682.236
						c41.594-43.119,79.719-93.998,112.261-150.338c62.969-109.101,97.491-225.703,96.654-348.898
						c-0.062-1.279-0.135-2.546-0.566-9.138c-1.795-24.535-5.792-47.435-11.929-68.466l374.381-216.147
						c-8.375,39.048-12.557,76.903-12.446,112.827c0.455,161.837,88.304,250.129,211.941,235.432L2601.574,3682.236z
						 M3495.471,3169.127c-172.832,99.779-313.909,19.395-314.475-179.214c-0.111-37.043,4.649-76.288,14.131-116.75l2.718-1.574
						l364.247-210.293c172.832-99.791,313.884-19.383,314.45,179.215l0.307,108.424L3495.471,3169.127z"/>
				</g>
			</g>
		</g>
	</g>
</g>
</svg>
