<svg id="Layer_1" enable-background="new 0 0 64 64" height="512" viewBox="0 0 64 64" width="512" xmlns="http://www.w3.org/2000/svg"><g><g><path d="m61 20v5h-5-15.05c1.26-1.4 2.19-3.11 2.67-5h8.38 8z" fill="#e06027"/><path d="m56 10 4 10h-8l-4-10z" fill="#f99163"/><path d="m52 20h-8.38c.25-.96.38-1.96.38-3 0-2.62-.83-5.03-2.25-7h6.25z" fill="#f7753c"/><path d="m41.75 10c1.42 1.97 2.25 4.38 2.25 7 0 1.04-.13 2.04-.38 3-.48 1.89-1.41 3.6-2.67 5-2.2 2.46-5.39 4-8.95 4s-6.75-1.54-8.95-4c-1.26-1.4-2.19-3.11-2.67-5-.25-.96-.38-1.96-.38-3 0-2.62.83-5.03 2.25-7 2.18-3.03 5.73-5 9.75-5s7.57 1.97 9.75 5zm-2.75 10v-6h-4v-4h-6v4h-4v6h4v4h6v-4z" fill="#d4f3f4" opacity=".98"/><path d="m16 10-4 10h-8l4-10z" fill="#f99163"/><path d="m16 10h6.25c-1.42 1.97-2.25 4.38-2.25 7 0 1.04.13 2.04.38 3h-8.38z" fill="#f7753c"/><path d="m23.05 25h-15.05-5v-5h1 8 8.38c.48 1.89 1.41 3.6 2.67 5z" fill="#e06027"/><path d="m63 57v6h-62v-6h5 15 11 11 15z" fill="#b3b3b3"/><path d="m21 51v6h-15v-6h2z" fill="#b7855f"/><path d="m56 25v26h-13v-16h-11-11v16h-13v-26h15.05c2.2 2.46 5.39 4 8.95 4s6.75-1.54 8.95-4z" fill="#ede5dd"/><path d="m58 51v6h-15v-6h13z" fill="#9b6d4e"/><path d="m43 51v6h-11v-22h11z" fill="#9ad6d2"/><path d="m32 35v22h-11v-6-16z" fill="#d4f3f4" opacity=".98"/><path d="m50 25h6v26h-6z" fill="#dbccc1"/><path d="m1 57h13v6h-13z" fill="#ccc"/><path d="m50 57h13v6h-13z" fill="#999"/><path d="m29 10v4h-4v6h4v4h3v-14z" fill="#dd4e4e" opacity=".98"/><path d="m35 14v-4h-3v14h3v-4h4v-6z" fill="#c64444"/></g><g fill="#252525"><path d="m63 56h-4v-5c0-.552-.447-1-1-1h-1v-24h4c.553 0 1-.448 1-1v-5c0-.552-.447-1-1-1h-.323l-3.749-9.372c-.152-.379-.519-.628-.928-.628h-13.777c-2.457-3.131-6.229-5-10.223-5s-7.766 1.869-10.223 5h-13.777c-.409 0-.776.249-.929.628l-3.748 9.372h-.323c-.553 0-1 .448-1 1v5c0 .552.447 1 1 1h4v24h-1c-.553 0-1 .448-1 1v5h-4c-.553 0-1 .448-1 1v6c0 .552.447 1 1 1h62c.553 0 1-.448 1-1v-6c0-.552-.447-1-1-1zm-19 0v-4h13v4zm-11 0v-20h9v20zm-11 0v-20h9v20zm38-32h-17.062c.598-.935 1.071-1.943 1.411-3h7.648.003.003 7.994.003zm-12.677-13 3.2 8h-5.694c.102-.658.171-1.324.171-2 0-2.119-.507-4.16-1.467-6zm11.2 8h-5.845l-3.2-8h5.846zm-26.523-13c3.532 0 6.873 1.714 8.938 4.584 1.349 1.872 2.062 4.09 2.062 6.416 0 .938-.117 1.862-.349 2.753-.432 1.697-1.277 3.28-2.446 4.58-2.084 2.331-5.075 3.667-8.205 3.667s-6.121-1.336-8.207-3.669c-1.167-1.297-2.013-2.88-2.445-4.583-.231-.886-.348-1.81-.348-2.748 0-2.326.713-4.544 2.062-6.416 2.065-2.87 5.406-4.584 8.938-4.584zm-11.533 5c-.96 1.84-1.467 3.881-1.467 6 0 .676.069 1.342.171 2h-5.694l3.2-8zm-11.79 0h5.846l-3.2 8h-5.846zm-4.677 10h.003 7.994.003.003 7.649c.34 1.058.813 2.066 1.41 3h-17.062zm5 5h13.637c2.444 2.54 5.823 4 9.363 4 3.541 0 6.922-1.461 9.364-4h13.636v24h-11v-15c0-.552-.447-1-1-1h-22c-.553 0-1 .448-1 1v15h-11zm-2 26h13v4h-13zm55 10h-60v-4h60z"/><path d="m25 21h3v3c0 .552.447 1 1 1h6c.553 0 1-.448 1-1v-3h3c.553 0 1-.448 1-1v-6c0-.552-.447-1-1-1h-3v-3c0-.552-.447-1-1-1h-6c-.553 0-1 .448-1 1v3h-3c-.553 0-1 .448-1 1v6c0 .552.447 1 1 1zm1-6h3c.553 0 1-.448 1-1v-3h4v3c0 .552.447 1 1 1h3v4h-3c-.553 0-1 .448-1 1v3h-4v-3c0-.552-.447-1-1-1h-3z"/><path d="m28 43c-.553 0-1 .448-1 1v3c0 .552.447 1 1 1s1-.448 1-1v-3c0-.552-.447-1-1-1z"/><path d="m36 43c-.553 0-1 .448-1 1v3c0 .552.447 1 1 1s1-.448 1-1v-3c0-.552-.447-1-1-1z"/><circle cx="13" cy="31" r="1"/><path d="m13 34c-.553 0-1 .448-1 1v10c0 .552.447 1 1 1s1-.448 1-1v-10c0-.552-.447-1-1-1z"/></g></g></svg>