<svg width="264" height="323" viewBox="0 0 264 323" fill="none" xmlns="http://www.w3.org/2000/svg">
<path fill-rule="evenodd" clip-rule="evenodd" d="M215.811 264H48.189C21.685 264 0 242.315 0 215.811V48.189C0 21.685 21.685 0 48.189 0H215.811C242.315 0 264 21.685 264 48.189V215.811C264 242.315 242.315 264 215.811 264Z" fill="#4AC12F"/>
<path fill-rule="evenodd" clip-rule="evenodd" d="M222.005 129.685C222.005 178.105 182.443 217.367 133.64 217.367C118.142 217.367 103.581 213.409 90.9231 206.456L41.9951 222.004L57.9431 174.961C49.8951 161.745 45.2671 146.247 45.2671 129.684C45.2671 81.2541 84.8291 41.9941 133.639 41.9941C182.443 41.9951 222.005 81.2551 222.005 129.685ZM133.64 55.9611C92.6631 55.9611 59.3411 89.0281 59.3411 129.685C59.3411 145.808 64.5941 160.752 73.4921 172.91L64.2141 200.284L92.7601 191.213C104.488 198.908 118.541 203.401 133.64 203.401C174.6 203.401 207.932 170.332 207.932 129.685C207.932 89.0281 174.6 55.9611 133.64 55.9611ZM178.262 149.881C177.715 148.983 176.269 148.446 174.112 147.371C171.944 146.298 161.289 141.093 159.306 140.381C157.323 139.666 155.868 139.306 154.433 141.454C152.988 143.604 148.835 148.447 147.568 149.882C146.308 151.32 145.048 151.495 142.88 150.42C140.71 149.347 133.727 147.07 125.457 139.757C119.022 134.052 114.674 127.021 113.404 124.871C112.147 122.723 113.279 121.561 114.352 120.488C115.33 119.52 116.522 117.978 117.605 116.728C118.69 115.468 119.05 114.568 119.773 113.133C120.496 111.698 120.136 110.448 119.588 109.373C119.05 108.3 114.715 97.7221 112.908 93.4151C111.113 89.1201 109.305 89.2801 108.035 89.2801C106.775 89.2801 104.437 89.6551 104.437 89.6551C104.437 89.6551 100.095 90.1931 98.1121 92.3431C96.1291 94.4911 90.5341 99.6961 90.5341 110.264C90.5341 120.84 98.2901 131.065 99.3721 132.49C100.457 133.928 114.353 156.339 136.376 164.944C158.4 173.547 158.4 170.677 162.373 170.314C166.338 169.964 175.186 165.119 176.994 160.099C178.8 155.076 178.8 150.771 178.262 149.881Z" fill="white"/>
<path opacity="0.2" d="M132.238 322.204C198.651 322.204 252.488 319.323 252.488 315.768C252.488 312.214 198.651 309.332 132.238 309.332C65.826 309.332 11.9883 312.214 11.9883 315.768C11.9883 319.323 65.826 322.204 132.238 322.204Z" fill="url(#paint0_radial_322_5)"/>
<defs>
<radialGradient id="paint0_radial_322_5" cx="0" cy="0" r="1" gradientUnits="userSpaceOnUse" gradientTransform="translate(132.239 315.745) scale(85.4676 4.49995)">
<stop/>
<stop offset="1" stop-color="#DAE5DF" stop-opacity="0"/>
</radialGradient>
</defs>
</svg>
