<svg width="580" height="120" viewBox="0 0 580 120" fill="none" xmlns="http://www.w3.org/2000/svg">
<g id="Frame 1">
<g id="Logo">
<path id="Vector" d="M66 110C93.6142 110 116 87.6142 116 60C116 32.3858 93.6142 10 66 10C38.3858 10 16 32.3858 16 60C16 87.6142 38.3858 110 66 110Z" fill="white" stroke="black"/>
<path id="Vector_2" d="M94.9352 31.0648H37.0648V88.9352H94.9352V31.0648Z" fill="black"/>
<path id="Vector_3" d="M66 92.4074C83.8981 92.4074 98.4074 77.8981 98.4074 60C98.4074 42.1019 83.8981 27.5926 66 27.5926C48.1019 27.5926 33.5926 42.1019 33.5926 60C33.5926 77.8981 48.1019 92.4074 66 92.4074Z" fill="white"/>
<path id="Vector_4" d="M66 85.463C80.0628 85.463 91.463 74.0628 91.463 60C91.463 45.9372 80.0628 34.537 66 34.537C51.9372 34.537 40.537 45.9372 40.537 60C40.537 74.0628 51.9372 85.463 66 85.463Z" fill="white" stroke="black" stroke-width="9"/>
</g>
<g id="Label">
<g id="OMNIWORKS" filter="url(#filter0_d)">
<path d="M154.502 28.2495C161.654 28.2495 167.123 30.2808 170.911 34.3433C174.698 38.3846 176.592 44.1821 176.592 51.7358C176.592 59.4588 174.709 65.3621 170.942 69.4458C167.176 73.5295 161.696 75.5713 154.502 75.5713C147.266 75.5713 141.775 73.54 138.03 69.4775C134.285 65.3939 132.412 59.48 132.412 51.7358C132.412 44.2033 134.306 38.4058 138.093 34.3433C141.881 30.2808 147.35 28.2495 154.502 28.2495ZM154.502 36.0571C150.566 36.0571 147.604 37.3796 145.615 40.0244C143.647 42.6693 142.664 46.5731 142.664 51.7358C142.664 56.9832 143.658 60.9717 145.647 63.7012C147.657 66.4307 150.609 67.7954 154.502 67.7954C158.395 67.7954 161.336 66.4307 163.325 63.7012C165.335 60.9717 166.34 56.9832 166.34 51.7358C166.34 46.6154 165.335 42.7222 163.325 40.0562C161.336 37.3901 158.395 36.0571 154.502 36.0571ZM224.771 50.2441C224.284 45.6527 223.914 42.4683 223.66 40.6909C223.406 41.7277 222.813 43.9176 221.882 47.2607C220.951 50.5827 220.116 53.3968 219.375 55.7031L213.313 73.5083H204.934L198.967 55.7031C197.719 51.9792 196.481 47.7051 195.254 42.8809L194.619 40.6909L192.905 55.7031L190.652 75H181.289L187.192 28.916H198.428L205.125 49.0063C206.034 51.9897 206.733 54.3701 207.219 56.1475C208.002 59.1309 208.647 61.342 209.155 62.7808C209.684 61.342 210.34 59.1309 211.123 56.1475C211.61 54.3701 212.297 51.9897 213.186 49.0063L219.883 28.916H231.055L237.053 75H227.69L225.342 55.7031L224.771 50.2441ZM260.825 54.5923C259.302 52.4341 256.921 48.5938 253.684 43.0713V75H244.639V28.916H252.51L266.538 48.9429C268.315 51.4608 270.791 55.354 273.965 60.6226V28.916H283.042V75H275.107L260.825 54.5923ZM293.516 28.916H303.45V75H293.516V28.916ZM343.979 50.8789C343.726 49.8421 343.451 48.5409 343.154 46.9751C342.879 45.3882 342.657 44.1821 342.488 43.3569L341.694 39.0405L340.933 43.3569C340.763 44.1821 340.531 45.3882 340.234 46.9751C339.959 48.5409 339.695 49.8421 339.441 50.8789L333.855 75H320.715L309.543 28.916H319.414L324.365 50.5615C325.063 53.7354 325.667 56.2744 326.174 58.1787L327.92 65.8276L331.443 50.5615L336.426 28.916H346.963L351.978 50.5615L355.5 65.8276C356.199 62.7173 356.802 60.1676 357.31 58.1787L359.055 50.5615L364.006 28.916H373.877L362.705 75H349.565L343.979 50.8789ZM398.252 28.2495C405.404 28.2495 410.873 30.2808 414.661 34.3433C418.448 38.3846 420.342 44.1821 420.342 51.7358C420.342 59.4588 418.459 65.3621 414.692 69.4458C410.926 73.5295 405.446 75.5713 398.252 75.5713C391.016 75.5713 385.525 73.54 381.78 69.4775C378.035 65.3939 376.162 59.48 376.162 51.7358C376.162 44.2033 378.056 38.4058 381.843 34.3433C385.631 30.2808 391.1 28.2495 398.252 28.2495ZM398.252 36.0571C394.316 36.0571 391.354 37.3796 389.365 40.0244C387.397 42.6693 386.414 46.5731 386.414 51.7358C386.414 56.9832 387.408 60.9717 389.397 63.7012C391.407 66.4307 394.359 67.7954 398.252 67.7954C402.145 67.7954 405.086 66.4307 407.075 63.7012C409.085 60.9717 410.09 56.9832 410.09 51.7358C410.09 46.6154 409.085 42.7222 407.075 40.0562C405.086 37.3901 402.145 36.0571 398.252 36.0571ZM437.766 75H427.959V28.916H443.765C449.52 28.916 453.931 30.1432 457 32.5977C460.089 35.0309 461.633 38.5962 461.633 43.2935C461.633 46.1922 460.893 48.6995 459.412 50.8154C457.931 52.9313 455.825 54.5605 453.096 55.7031L463.188 75H452.588L444.146 57.4487H437.766V75ZM443.352 50.3076C446.208 50.3076 448.314 49.7363 449.668 48.5938C451.043 47.43 451.731 45.6632 451.731 43.2935C451.731 40.8602 451.043 39.0828 449.668 37.9614C448.314 36.8188 446.208 36.2476 443.352 36.2476H437.766V50.3076H443.352ZM469.854 28.916H479.788V75H469.854V28.916ZM508.86 75H497.529L480.708 50.3711L496.101 28.916H507.305L491.499 50.2441L508.86 75ZM528.918 28.3447C532.727 28.3236 537.012 29.1593 541.772 30.8521L539.773 38.4692C535.351 36.9035 531.754 36.1206 528.982 36.1206C526.739 36.1206 524.972 36.5649 523.682 37.4536C522.391 38.3423 521.746 39.5483 521.746 41.0718C521.746 42.7222 522.338 44.034 523.523 45.0073C524.729 45.9806 526.919 46.8799 530.093 47.7051C534.769 48.9111 538.091 50.5827 540.059 52.7197C542.026 54.8356 543.01 57.7555 543.01 61.4795C543.01 65.9863 541.487 69.4458 538.44 71.8579C535.414 74.2489 531.087 75.4443 525.459 75.4443C520.868 75.4443 515.948 74.4076 510.701 72.334L513.049 64.939C515.948 65.9757 518.318 66.7057 520.159 67.1289C522 67.5309 523.745 67.7319 525.396 67.7319C527.786 67.7319 529.627 67.2241 530.918 66.2085C532.23 65.1717 532.886 63.7435 532.886 61.9238C532.886 60.7601 532.611 59.7868 532.061 59.0039C531.51 58.221 530.579 57.5228 529.268 56.9092C527.956 56.2744 526.062 55.6502 523.586 55.0366C519.46 54.0422 516.445 52.4976 514.541 50.4028C512.637 48.3081 511.685 45.5469 511.685 42.1191C511.685 37.7393 513.187 34.3538 516.191 31.9629C519.217 29.5508 523.459 28.3447 528.918 28.3447Z" fill="white"/>
</g>
<path id="INNOVATIVE SOLUTIONS FOR EFFICIENT BUSINESS OPERATIONS" d="M131.135 89.0742H133.274V99H131.135V89.0742ZM139.023 94.6045C138.695 94.1396 138.183 93.3125 137.485 92.123V99H135.537V89.0742H137.232L140.254 93.3877C140.637 93.93 141.17 94.7686 141.854 95.9033V89.0742H143.809V99H142.1L139.023 94.6045ZM149.551 94.6045C149.223 94.1396 148.71 93.3125 148.013 92.123V99H146.064V89.0742H147.76L150.781 93.3877C151.164 93.93 151.697 94.7686 152.381 95.9033V89.0742H154.336V99H152.627L149.551 94.6045ZM160.734 88.9307C162.275 88.9307 163.453 89.3682 164.269 90.2432C165.084 91.1136 165.492 92.3623 165.492 93.9893C165.492 95.6527 165.087 96.9242 164.275 97.8037C163.464 98.6833 162.284 99.123 160.734 99.123C159.176 99.123 157.993 98.6855 157.187 97.8105C156.38 96.931 155.977 95.6572 155.977 93.9893C155.977 92.3669 156.384 91.1182 157.2 90.2432C158.016 89.3682 159.194 88.9307 160.734 88.9307ZM160.734 90.6123C159.887 90.6123 159.249 90.8971 158.82 91.4668C158.396 92.0365 158.185 92.8773 158.185 93.9893C158.185 95.1195 158.399 95.9785 158.827 96.5664C159.26 97.1543 159.896 97.4482 160.734 97.4482C161.573 97.4482 162.206 97.1543 162.635 96.5664C163.068 95.9785 163.284 95.1195 163.284 93.9893C163.284 92.8864 163.068 92.0479 162.635 91.4736C162.206 90.8994 161.573 90.6123 160.734 90.6123ZM165.875 89.0742H168.062L169.587 93.7363C169.81 94.429 170.095 95.4499 170.441 96.7988L170.523 97.1543C170.879 95.6777 171.187 94.5384 171.446 93.7363L172.991 89.0742H175.172L171.843 99H169.211L165.875 89.0742ZM177.592 96.4502L176.785 99H174.68L177.899 89.0742H180.729L184.031 99H181.96L181.119 96.4502H177.592ZM179.287 90.9062L178.07 94.8711H180.634L179.383 90.9062H179.287ZM190.895 90.7012H188.208V99H186.068V90.7012H183.279V89.0742H190.895V90.7012ZM192.125 89.0742H194.265V99H192.125V89.0742ZM195.475 89.0742H197.662L199.187 93.7363C199.41 94.429 199.695 95.4499 200.041 96.7988L200.123 97.1543C200.479 95.6777 200.786 94.5384 201.046 93.7363L202.591 89.0742H204.771L201.442 99H198.811L195.475 89.0742ZM208.128 93.1074H212.038V94.6592H208.128V97.4209H212.599V99H205.988V89.0742H212.455V90.6533H208.128V93.1074ZM220.515 88.9512C221.335 88.9466 222.258 89.1266 223.283 89.4912L222.853 91.1318C221.9 90.7946 221.125 90.626 220.528 90.626C220.045 90.626 219.665 90.7217 219.387 90.9131C219.109 91.1045 218.97 91.3643 218.97 91.6924C218.97 92.0479 219.097 92.3304 219.353 92.54C219.612 92.7497 220.084 92.9434 220.768 93.1211C221.775 93.3809 222.49 93.7409 222.914 94.2012C223.338 94.6569 223.55 95.2858 223.55 96.0879C223.55 97.0586 223.222 97.8037 222.565 98.3232C221.914 98.8382 220.982 99.0957 219.77 99.0957C218.781 99.0957 217.721 98.8724 216.591 98.4258L217.097 96.833C217.721 97.0563 218.231 97.2135 218.628 97.3047C219.024 97.3913 219.4 97.4346 219.756 97.4346C220.271 97.4346 220.667 97.3252 220.945 97.1064C221.228 96.8831 221.369 96.5755 221.369 96.1836C221.369 95.9329 221.31 95.7233 221.191 95.5547C221.073 95.3861 220.872 95.2357 220.59 95.1035C220.307 94.9668 219.899 94.8324 219.366 94.7002C218.478 94.486 217.828 94.1533 217.418 93.7021C217.008 93.251 216.803 92.6562 216.803 91.918C216.803 90.9746 217.126 90.2454 217.773 89.7305C218.425 89.2109 219.339 88.9512 220.515 88.9512ZM229.258 88.9307C230.798 88.9307 231.976 89.3682 232.792 90.2432C233.608 91.1136 234.016 92.3623 234.016 93.9893C234.016 95.6527 233.61 96.9242 232.799 97.8037C231.988 98.6833 230.807 99.123 229.258 99.123C227.699 99.123 226.517 98.6855 225.71 97.8105C224.903 96.931 224.5 95.6572 224.5 93.9893C224.5 92.3669 224.908 91.1182 225.724 90.2432C226.539 89.3682 227.717 88.9307 229.258 88.9307ZM229.258 90.6123C228.41 90.6123 227.772 90.8971 227.344 91.4668C226.92 92.0365 226.708 92.8773 226.708 93.9893C226.708 95.1195 226.922 95.9785 227.351 96.5664C227.784 97.1543 228.419 97.4482 229.258 97.4482C230.096 97.4482 230.73 97.1543 231.158 96.5664C231.591 95.9785 231.808 95.1195 231.808 93.9893C231.808 92.8864 231.591 92.0479 231.158 91.4736C230.73 90.8994 230.096 90.6123 229.258 90.6123ZM241.87 99H235.656V89.0742H237.7V97.373H241.87V99ZM251.188 95.6094C251.188 96.7578 250.832 97.6328 250.121 98.2344C249.41 98.8359 248.382 99.1367 247.038 99.1367C245.675 99.1367 244.643 98.8382 243.941 98.2412C243.244 97.6442 242.896 96.7669 242.896 95.6094V89.0742H245.042V95.6367C245.042 96.8398 245.707 97.4437 247.038 97.4482C248.373 97.4482 249.041 96.8444 249.041 95.6367V89.0742H251.188V95.6094ZM259.814 90.7012H257.128V99H254.988V90.7012H252.199V89.0742H259.814V90.7012ZM261.045 89.0742H263.185V99H261.045V89.0742ZM269.59 88.9307C271.13 88.9307 272.308 89.3682 273.124 90.2432C273.94 91.1136 274.348 92.3623 274.348 93.9893C274.348 95.6527 273.942 96.9242 273.131 97.8037C272.32 98.6833 271.139 99.123 269.59 99.123C268.031 99.123 266.849 98.6855 266.042 97.8105C265.235 96.931 264.832 95.6572 264.832 93.9893C264.832 92.3669 265.24 91.1182 266.056 90.2432C266.871 89.3682 268.049 88.9307 269.59 88.9307ZM269.59 90.6123C268.742 90.6123 268.104 90.8971 267.676 91.4668C267.252 92.0365 267.04 92.8773 267.04 93.9893C267.04 95.1195 267.254 95.9785 267.683 96.5664C268.116 97.1543 268.751 97.4482 269.59 97.4482C270.428 97.4482 271.062 97.1543 271.49 96.5664C271.923 95.9785 272.14 95.1195 272.14 93.9893C272.14 92.8864 271.923 92.0479 271.49 91.4736C271.062 90.8994 270.428 90.6123 269.59 90.6123ZM279.475 94.6045C279.146 94.1396 278.634 93.3125 277.937 92.123V99H275.988V89.0742H277.684L280.705 93.3877C281.088 93.93 281.621 94.7686 282.305 95.9033V89.0742H284.26V99H282.551L279.475 94.6045ZM289.681 88.9512C290.501 88.9466 291.424 89.1266 292.449 89.4912L292.019 91.1318C291.066 90.7946 290.291 90.626 289.694 90.626C289.211 90.626 288.831 90.7217 288.553 90.9131C288.275 91.1045 288.136 91.3643 288.136 91.6924C288.136 92.0479 288.263 92.3304 288.519 92.54C288.778 92.7497 289.25 92.9434 289.934 93.1211C290.941 93.3809 291.656 93.7409 292.08 94.2012C292.504 94.6569 292.716 95.2858 292.716 96.0879C292.716 97.0586 292.388 97.8037 291.731 98.3232C291.08 98.8382 290.148 99.0957 288.936 99.0957C287.947 99.0957 286.887 98.8724 285.757 98.4258L286.263 96.833C286.887 97.0563 287.397 97.2135 287.794 97.3047C288.19 97.3913 288.566 97.4346 288.922 97.4346C289.437 97.4346 289.833 97.3252 290.111 97.1064C290.394 96.8831 290.535 96.5755 290.535 96.1836C290.535 95.9329 290.476 95.7233 290.357 95.5547C290.239 95.3861 290.038 95.2357 289.756 95.1035C289.473 94.9668 289.065 94.8324 288.532 94.7002C287.644 94.486 286.994 94.1533 286.584 93.7021C286.174 93.251 285.969 92.6562 285.969 91.918C285.969 90.9746 286.292 90.2454 286.939 89.7305C287.591 89.2109 288.505 88.9512 289.681 88.9512ZM299.565 93.1758H303.236V94.7891H299.565V99H297.426V89.0742H303.811V90.6807H299.565V93.1758ZM309.006 88.9307C310.546 88.9307 311.724 89.3682 312.54 90.2432C313.356 91.1136 313.764 92.3623 313.764 93.9893C313.764 95.6527 313.358 96.9242 312.547 97.8037C311.736 98.6833 310.555 99.123 309.006 99.123C307.447 99.123 306.265 98.6855 305.458 97.8105C304.651 96.931 304.248 95.6572 304.248 93.9893C304.248 92.3669 304.656 91.1182 305.472 90.2432C306.287 89.3682 307.465 88.9307 309.006 88.9307ZM309.006 90.6123C308.158 90.6123 307.52 90.8971 307.092 91.4668C306.668 92.0365 306.456 92.8773 306.456 93.9893C306.456 95.1195 306.67 95.9785 307.099 96.5664C307.532 97.1543 308.167 97.4482 309.006 97.4482C309.844 97.4482 310.478 97.1543 310.906 96.5664C311.339 95.9785 311.556 95.1195 311.556 93.9893C311.556 92.8864 311.339 92.0479 310.906 91.4736C310.478 90.8994 309.844 90.6123 309.006 90.6123ZM317.517 99H315.404V89.0742H318.809C320.048 89.0742 320.998 89.3385 321.659 89.8672C322.325 90.3913 322.657 91.1592 322.657 92.1709C322.657 92.7952 322.498 93.3353 322.179 93.791C321.86 94.2467 321.406 94.5977 320.818 94.8438L322.992 99H320.709L318.891 95.2197H317.517V99ZM318.72 93.6816C319.335 93.6816 319.788 93.5586 320.08 93.3125C320.376 93.0618 320.524 92.6813 320.524 92.1709C320.524 91.6468 320.376 91.264 320.08 91.0225C319.788 90.7764 319.335 90.6533 318.72 90.6533H317.517V93.6816H318.72ZM329.712 93.1074H333.622V94.6592H329.712V97.4209H334.183V99H327.572V89.0742H334.039V90.6533H329.712V93.1074ZM337.929 93.1758H341.6V94.7891H337.929V99H335.789V89.0742H342.174V90.6807H337.929V93.1758ZM345.667 93.1758H349.338V94.7891H345.667V99H343.527V89.0742H349.912V90.6807H345.667V93.1758ZM351.266 89.0742H353.405V99H351.266V89.0742ZM359.879 88.9512C360.403 88.9512 360.925 89.0195 361.444 89.1562C361.968 89.2884 362.438 89.4753 362.853 89.7168L362.217 91.2002C361.825 91.0133 361.463 90.8789 361.13 90.7969C360.802 90.7103 360.469 90.667 360.132 90.667C359.188 90.667 358.471 90.9518 357.979 91.5215C357.491 92.0911 357.247 92.9183 357.247 94.0029C357.247 95.1058 357.491 95.9421 357.979 96.5117C358.471 97.0768 359.188 97.3594 360.132 97.3594C360.861 97.3594 361.622 97.193 362.415 96.8604L362.935 98.4258C361.909 98.8815 360.882 99.1094 359.852 99.1094C358.302 99.1094 357.115 98.6742 356.29 97.8037C355.465 96.9287 355.053 95.6755 355.053 94.0439C355.053 92.9912 355.244 92.082 355.627 91.3164C356.01 90.5508 356.561 89.9652 357.281 89.5596C358.006 89.154 358.872 88.9512 359.879 88.9512ZM364.281 89.0742H366.421V99H364.281V89.0742ZM370.823 93.1074H374.733V94.6592H370.823V97.4209H375.294V99H368.684V89.0742H375.15V90.6533H370.823V93.1074ZM380.387 94.6045C380.059 94.1396 379.546 93.3125 378.849 92.123V99H376.9V89.0742H378.596L381.617 93.3877C382 93.93 382.533 94.7686 383.217 95.9033V89.0742H385.172V99H383.463L380.387 94.6045ZM394.004 90.7012H391.317V99H389.178V90.7012H386.389V89.0742H394.004V90.7012ZM403.54 93.8457C404.128 94.0326 404.581 94.3219 404.9 94.7139C405.219 95.1058 405.379 95.582 405.379 96.1426C405.379 97.0495 405.053 97.7536 404.401 98.2549C403.754 98.7516 402.843 99 401.667 99H397.873V89.0742H401.387C402.553 89.0742 403.453 89.3044 404.087 89.7646C404.72 90.2204 405.037 90.863 405.037 91.6924C405.037 92.7087 404.538 93.3991 403.54 93.7637V93.8457ZM401.277 93.1621C402.376 93.1621 402.925 92.7178 402.925 91.8291C402.925 91.0088 402.376 90.5986 401.277 90.5986H399.876V93.1621H401.277ZM401.558 97.4756C402.086 97.4756 402.496 97.348 402.788 97.0928C403.084 96.833 403.232 96.4707 403.232 96.0059C403.232 95.5592 403.077 95.222 402.768 94.9941C402.462 94.7617 402.011 94.6455 401.414 94.6455H399.876V97.4756H401.558ZM415.086 95.6094C415.086 96.7578 414.73 97.6328 414.02 98.2344C413.309 98.8359 412.281 99.1367 410.937 99.1367C409.574 99.1367 408.542 98.8382 407.84 98.2412C407.143 97.6442 406.794 96.7669 406.794 95.6094V89.0742H408.94V95.6367C408.94 96.8398 409.606 97.4437 410.937 97.4482C412.272 97.4482 412.939 96.8444 412.939 95.6367V89.0742H415.086V95.6094ZM420.302 88.9512C421.122 88.9466 422.045 89.1266 423.07 89.4912L422.64 91.1318C421.687 90.7946 420.912 90.626 420.315 90.626C419.832 90.626 419.452 90.7217 419.174 90.9131C418.896 91.1045 418.757 91.3643 418.757 91.6924C418.757 92.0479 418.884 92.3304 419.14 92.54C419.399 92.7497 419.871 92.9434 420.555 93.1211C421.562 93.3809 422.277 93.7409 422.701 94.2012C423.125 94.6569 423.337 95.2858 423.337 96.0879C423.337 97.0586 423.009 97.8037 422.353 98.3232C421.701 98.8382 420.769 99.0957 419.557 99.0957C418.568 99.0957 417.508 98.8724 416.378 98.4258L416.884 96.833C417.508 97.0563 418.019 97.2135 418.415 97.3047C418.812 97.3913 419.188 97.4346 419.543 97.4346C420.058 97.4346 420.454 97.3252 420.732 97.1064C421.015 96.8831 421.156 96.5755 421.156 96.1836C421.156 95.9329 421.097 95.7233 420.979 95.5547C420.86 95.3861 420.66 95.2357 420.377 95.1035C420.094 94.9668 419.687 94.8324 419.153 94.7002C418.265 94.486 417.615 94.1533 417.205 93.7021C416.795 93.251 416.59 92.6562 416.59 91.918C416.59 90.9746 416.913 90.2454 417.561 89.7305C418.212 89.2109 419.126 88.9512 420.302 88.9512ZM424.902 89.0742H427.042V99H424.902V89.0742ZM432.791 94.6045C432.463 94.1396 431.95 93.3125 431.253 92.123V99H429.305V89.0742H431L434.021 93.3877C434.404 93.93 434.938 94.7686 435.621 95.9033V89.0742H437.576V99H435.867L432.791 94.6045ZM441.972 93.1074H445.882V94.6592H441.972V97.4209H446.442V99H439.832V89.0742H446.299V90.6533H441.972V93.1074ZM451.214 88.9512C452.034 88.9466 452.957 89.1266 453.982 89.4912L453.552 91.1318C452.599 90.7946 451.825 90.626 451.228 90.626C450.744 90.626 450.364 90.7217 450.086 90.9131C449.808 91.1045 449.669 91.3643 449.669 91.6924C449.669 92.0479 449.797 92.3304 450.052 92.54C450.312 92.7497 450.783 92.9434 451.467 93.1211C452.474 93.3809 453.189 93.7409 453.613 94.2012C454.037 94.6569 454.249 95.2858 454.249 96.0879C454.249 97.0586 453.921 97.8037 453.265 98.3232C452.613 98.8382 451.681 99.0957 450.469 99.0957C449.48 99.0957 448.42 98.8724 447.29 98.4258L447.796 96.833C448.42 97.0563 448.931 97.2135 449.327 97.3047C449.724 97.3913 450.1 97.4346 450.455 97.4346C450.97 97.4346 451.367 97.3252 451.645 97.1064C451.927 96.8831 452.068 96.5755 452.068 96.1836C452.068 95.9329 452.009 95.7233 451.891 95.5547C451.772 95.3861 451.572 95.2357 451.289 95.1035C451.007 94.9668 450.599 94.8324 450.065 94.7002C449.177 94.486 448.527 94.1533 448.117 93.7021C447.707 93.251 447.502 92.6562 447.502 91.918C447.502 90.9746 447.826 90.2454 448.473 89.7305C449.124 89.2109 450.038 88.9512 451.214 88.9512ZM458.979 88.9512C459.8 88.9466 460.723 89.1266 461.748 89.4912L461.317 91.1318C460.365 90.7946 459.59 90.626 458.993 90.626C458.51 90.626 458.13 90.7217 457.852 90.9131C457.574 91.1045 457.435 91.3643 457.435 91.6924C457.435 92.0479 457.562 92.3304 457.817 92.54C458.077 92.7497 458.549 92.9434 459.232 93.1211C460.24 93.3809 460.955 93.7409 461.379 94.2012C461.803 94.6569 462.015 95.2858 462.015 96.0879C462.015 97.0586 461.687 97.8037 461.03 98.3232C460.379 98.8382 459.447 99.0957 458.234 99.0957C457.245 99.0957 456.186 98.8724 455.056 98.4258L455.562 96.833C456.186 97.0563 456.696 97.2135 457.093 97.3047C457.489 97.3913 457.865 97.4346 458.221 97.4346C458.736 97.4346 459.132 97.3252 459.41 97.1064C459.693 96.8831 459.834 96.5755 459.834 96.1836C459.834 95.9329 459.775 95.7233 459.656 95.5547C459.538 95.3861 459.337 95.2357 459.055 95.1035C458.772 94.9668 458.364 94.8324 457.831 94.7002C456.942 94.486 456.293 94.1533 455.883 93.7021C455.473 93.251 455.268 92.6562 455.268 91.918C455.268 90.9746 455.591 90.2454 456.238 89.7305C456.89 89.2109 457.804 88.9512 458.979 88.9512ZM470.867 88.9307C472.408 88.9307 473.586 89.3682 474.401 90.2432C475.217 91.1136 475.625 92.3623 475.625 93.9893C475.625 95.6527 475.219 96.9242 474.408 97.8037C473.597 98.6833 472.417 99.123 470.867 99.123C469.309 99.123 468.126 98.6855 467.319 97.8105C466.513 96.931 466.109 95.6572 466.109 93.9893C466.109 92.3669 466.517 91.1182 467.333 90.2432C468.149 89.3682 469.327 88.9307 470.867 88.9307ZM470.867 90.6123C470.02 90.6123 469.382 90.8971 468.953 91.4668C468.529 92.0365 468.317 92.8773 468.317 93.9893C468.317 95.1195 468.532 95.9785 468.96 96.5664C469.393 97.1543 470.029 97.4482 470.867 97.4482C471.706 97.4482 472.339 97.1543 472.768 96.5664C473.201 95.9785 473.417 95.1195 473.417 93.9893C473.417 92.8864 473.201 92.0479 472.768 91.4736C472.339 90.8994 471.706 90.6123 470.867 90.6123ZM480.67 89.0742C481.882 89.0742 482.81 89.3431 483.452 89.8809C484.095 90.4141 484.416 91.1911 484.416 92.2119C484.416 93.2008 484.09 93.971 483.438 94.5225C482.787 95.0693 481.878 95.3428 480.711 95.3428H479.378V99H477.266V89.0742H480.67ZM480.581 93.7773C481.16 93.7773 481.59 93.6497 481.873 93.3945C482.16 93.1348 482.304 92.7406 482.304 92.2119C482.304 91.6787 482.162 91.2868 481.88 91.0361C481.602 90.7809 481.169 90.6533 480.581 90.6533H479.378V93.7773H480.581ZM487.978 93.1074H491.888V94.6592H487.978V97.4209H492.448V99H485.838V89.0742H492.305V90.6533H487.978V93.1074ZM496.167 99H494.055V89.0742H497.459C498.699 89.0742 499.649 89.3385 500.31 89.8672C500.975 90.3913 501.308 91.1592 501.308 92.1709C501.308 92.7952 501.148 93.3353 500.829 93.791C500.51 94.2467 500.057 94.5977 499.469 94.8438L501.643 99H499.359L497.541 95.2197H496.167V99ZM497.37 93.6816C497.985 93.6816 498.439 93.5586 498.73 93.3125C499.027 93.0618 499.175 92.6813 499.175 92.1709C499.175 91.6468 499.027 91.264 498.73 91.0225C498.439 90.7764 497.985 90.6533 497.37 90.6533H496.167V93.6816H497.37ZM504.951 96.4502L504.145 99H502.039L505.259 89.0742H508.089L511.391 99H509.319L508.479 96.4502H504.951ZM506.646 90.9062L505.43 94.8711H507.993L506.742 90.9062H506.646ZM518.254 90.7012H515.567V99H513.428V90.7012H510.639V89.0742H518.254V90.7012ZM519.484 89.0742H521.624V99H519.484V89.0742ZM528.029 88.9307C529.57 88.9307 530.748 89.3682 531.563 90.2432C532.379 91.1136 532.787 92.3623 532.787 93.9893C532.787 95.6527 532.382 96.9242 531.57 97.8037C530.759 98.6833 529.579 99.123 528.029 99.123C526.471 99.123 525.288 98.6855 524.481 97.8105C523.675 96.931 523.271 95.6572 523.271 93.9893C523.271 92.3669 523.679 91.1182 524.495 90.2432C525.311 89.3682 526.489 88.9307 528.029 88.9307ZM528.029 90.6123C527.182 90.6123 526.544 90.8971 526.115 91.4668C525.691 92.0365 525.479 92.8773 525.479 93.9893C525.479 95.1195 525.694 95.9785 526.122 96.5664C526.555 97.1543 527.191 97.4482 528.029 97.4482C528.868 97.4482 529.501 97.1543 529.93 96.5664C530.363 95.9785 530.579 95.1195 530.579 93.9893C530.579 92.8864 530.363 92.0479 529.93 91.4736C529.501 90.8994 528.868 90.6123 528.029 90.6123ZM537.914 94.6045C537.586 94.1396 537.073 93.3125 536.376 92.123V99H534.428V89.0742H536.123L539.145 93.3877C539.527 93.93 540.061 94.7686 540.744 95.9033V89.0742H542.699V99H540.99L537.914 94.6045ZM548.12 88.9512C548.94 88.9466 549.863 89.1266 550.889 89.4912L550.458 91.1318C549.506 90.7946 548.731 90.626 548.134 90.626C547.651 90.626 547.27 90.7217 546.992 90.9131C546.714 91.1045 546.575 91.3643 546.575 91.6924C546.575 92.0479 546.703 92.3304 546.958 92.54C547.218 92.7497 547.689 92.9434 548.373 93.1211C549.38 93.3809 550.096 93.7409 550.52 94.2012C550.943 94.6569 551.155 95.2858 551.155 96.0879C551.155 97.0586 550.827 97.8037 550.171 98.3232C549.519 98.8382 548.587 99.0957 547.375 99.0957C546.386 99.0957 545.326 98.8724 544.196 98.4258L544.702 96.833C545.326 97.0563 545.837 97.2135 546.233 97.3047C546.63 97.3913 547.006 97.4346 547.361 97.4346C547.876 97.4346 548.273 97.3252 548.551 97.1064C548.833 96.8831 548.975 96.5755 548.975 96.1836C548.975 95.9329 548.915 95.7233 548.797 95.5547C548.678 95.3861 548.478 95.2357 548.195 95.1035C547.913 94.9668 547.505 94.8324 546.972 94.7002C546.083 94.486 545.434 94.1533 545.023 93.7021C544.613 93.251 544.408 92.6562 544.408 91.918C544.408 90.9746 544.732 90.2454 545.379 89.7305C546.031 89.2109 546.944 88.9512 548.12 88.9512Z" fill="white"/>
</g>
</g>
<defs>
<filter id="filter0_d" x="128.412" y="28.2495" width="418.598" height="55.3218" filterUnits="userSpaceOnUse" color-interpolation-filters="sRGB">
<feFlood flood-opacity="0" result="BackgroundImageFix"/>
<feColorMatrix in="SourceAlpha" type="matrix" values="0 0 0 0 0 0 0 0 0 0 0 0 0 0 0 0 0 0 127 0"/>
<feOffset dy="4"/>
<feGaussianBlur stdDeviation="2"/>
<feColorMatrix type="matrix" values="0 0 0 0 0 0 0 0 0 0 0 0 0 0 0 0 0 0 0.25 0"/>
<feBlend mode="normal" in2="BackgroundImageFix" result="effect1_dropShadow"/>
<feBlend mode="normal" in="SourceGraphic" in2="effect1_dropShadow" result="shape"/>
</filter>
</defs>
</svg>
