<svg width="580" height="120" viewBox="0 0 580 120" fill="none" xmlns="http://www.w3.org/2000/svg">
<g id="Frame 1">
<g id="Logo">
<path id="Vector" d="M66 110C93.6142 110 116 87.6142 116 60C116 32.3858 93.6142 10 66 10C38.3858 10 16 32.3858 16 60C16 87.6142 38.3858 110 66 110Z" fill="url(#paint0_linear)" stroke="black"/>
<path id="Vector_2" d="M94.9352 31.0648H37.0648V88.9352H94.9352V31.0648Z" fill="white"/>
<path id="Vector_3" d="M66 92.4074C83.8981 92.4074 98.4074 77.8981 98.4074 60C98.4074 42.1019 83.8981 27.5926 66 27.5926C48.1019 27.5926 33.5926 42.1019 33.5926 60C33.5926 77.8981 48.1019 92.4074 66 92.4074Z" fill="url(#paint1_linear)"/>
<path id="Vector_4" d="M66 85.463C80.0628 85.463 91.463 74.0628 91.463 60C91.463 45.9372 80.0628 34.537 66 34.537C51.9372 34.537 40.537 45.9372 40.537 60C40.537 74.0628 51.9372 85.463 66 85.463Z" fill="url(#paint2_linear)" stroke="white" stroke-width="5"/>
</g>
<g id="Label">
<g id="OMNIWORKS" filter="url(#filter0_d)">
<path d="M154.502 28.2495C161.654 28.2495 167.123 30.2808 170.911 34.3433C174.698 38.3846 176.592 44.1821 176.592 51.7358C176.592 59.4588 174.709 65.3621 170.942 69.4458C167.176 73.5295 161.696 75.5713 154.502 75.5713C147.266 75.5713 141.775 73.54 138.03 69.4775C134.285 65.3939 132.412 59.48 132.412 51.7358C132.412 44.2033 134.306 38.4058 138.093 34.3433C141.881 30.2808 147.35 28.2495 154.502 28.2495ZM154.502 36.0571C150.566 36.0571 147.604 37.3796 145.615 40.0244C143.647 42.6693 142.664 46.5731 142.664 51.7358C142.664 56.9832 143.658 60.9717 145.647 63.7012C147.657 66.4307 150.609 67.7954 154.502 67.7954C158.395 67.7954 161.336 66.4307 163.325 63.7012C165.335 60.9717 166.34 56.9832 166.34 51.7358C166.34 46.6154 165.335 42.7222 163.325 40.0562C161.336 37.3901 158.395 36.0571 154.502 36.0571ZM224.771 50.2441C224.284 45.6527 223.914 42.4683 223.66 40.6909C223.406 41.7277 222.813 43.9176 221.882 47.2607C220.951 50.5827 220.116 53.3968 219.375 55.7031L213.313 73.5083H204.934L198.967 55.7031C197.719 51.9792 196.481 47.7051 195.254 42.8809L194.619 40.6909L192.905 55.7031L190.652 75H181.289L187.192 28.916H198.428L205.125 49.0063C206.034 51.9897 206.733 54.3701 207.219 56.1475C208.002 59.1309 208.647 61.342 209.155 62.7808C209.684 61.342 210.34 59.1309 211.123 56.1475C211.61 54.3701 212.297 51.9897 213.186 49.0063L219.883 28.916H231.055L237.053 75H227.69L225.342 55.7031L224.771 50.2441ZM260.825 54.5923C259.302 52.4341 256.921 48.5938 253.684 43.0713V75H244.639V28.916H252.51L266.538 48.9429C268.315 51.4608 270.791 55.354 273.965 60.6226V28.916H283.042V75H275.107L260.825 54.5923ZM293.516 28.916H303.45V75H293.516V28.916Z" fill="black"/>
<path d="M343.979 50.8789C343.726 49.8421 343.451 48.5409 343.154 46.9751C342.879 45.3882 342.657 44.1821 342.488 43.3569L341.694 39.0405L340.933 43.3569C340.763 44.1821 340.531 45.3882 340.234 46.9751C339.959 48.5409 339.695 49.8421 339.441 50.8789L333.855 75H320.715L309.543 28.916H319.414L324.365 50.5615C325.063 53.7354 325.667 56.2744 326.174 58.1787L327.92 65.8276L331.443 50.5615L336.426 28.916H346.963L351.978 50.5615L355.5 65.8276C356.199 62.7173 356.802 60.1676 357.31 58.1787L359.055 50.5615L364.006 28.916H373.877L362.705 75H349.565L343.979 50.8789ZM398.252 28.2495C405.404 28.2495 410.873 30.2808 414.661 34.3433C418.448 38.3846 420.342 44.1821 420.342 51.7358C420.342 59.4588 418.459 65.3621 414.692 69.4458C410.926 73.5295 405.446 75.5713 398.252 75.5713C391.016 75.5713 385.525 73.54 381.78 69.4775C378.035 65.3939 376.162 59.48 376.162 51.7358C376.162 44.2033 378.056 38.4058 381.843 34.3433C385.631 30.2808 391.1 28.2495 398.252 28.2495ZM398.252 36.0571C394.316 36.0571 391.354 37.3796 389.365 40.0244C387.397 42.6693 386.414 46.5731 386.414 51.7358C386.414 56.9832 387.408 60.9717 389.397 63.7012C391.407 66.4307 394.359 67.7954 398.252 67.7954C402.145 67.7954 405.086 66.4307 407.075 63.7012C409.085 60.9717 410.09 56.9832 410.09 51.7358C410.09 46.6154 409.085 42.7222 407.075 40.0562C405.086 37.3901 402.145 36.0571 398.252 36.0571ZM437.766 75H427.959V28.916H443.765C449.52 28.916 453.931 30.1432 457 32.5977C460.089 35.0309 461.633 38.5962 461.633 43.2935C461.633 46.1922 460.893 48.6995 459.412 50.8154C457.931 52.9313 455.825 54.5605 453.096 55.7031L463.188 75H452.588L444.146 57.4487H437.766V75ZM443.352 50.3076C446.208 50.3076 448.314 49.7363 449.668 48.5938C451.043 47.43 451.731 45.6632 451.731 43.2935C451.731 40.8602 451.043 39.0828 449.668 37.9614C448.314 36.8188 446.208 36.2476 443.352 36.2476H437.766V50.3076H443.352ZM469.854 28.916H479.788V75H469.854V28.916ZM508.86 75H497.529L480.708 50.3711L496.101 28.916H507.305L491.499 50.2441L508.86 75ZM528.918 28.3447C532.727 28.3236 537.012 29.1593 541.772 30.8521L539.773 38.4692C535.351 36.9035 531.754 36.1206 528.982 36.1206C526.739 36.1206 524.972 36.5649 523.682 37.4536C522.391 38.3423 521.746 39.5483 521.746 41.0718C521.746 42.7222 522.338 44.034 523.523 45.0073C524.729 45.9806 526.919 46.8799 530.093 47.7051C534.769 48.9111 538.091 50.5827 540.059 52.7197C542.026 54.8356 543.01 57.7555 543.01 61.4795C543.01 65.9863 541.487 69.4458 538.44 71.8579C535.414 74.2489 531.087 75.4443 525.459 75.4443C520.868 75.4443 515.948 74.4076 510.701 72.334L513.049 64.939C515.948 65.9757 518.318 66.7057 520.159 67.1289C522 67.5309 523.745 67.7319 525.396 67.7319C527.786 67.7319 529.627 67.2241 530.918 66.2085C532.23 65.1717 532.886 63.7435 532.886 61.9238C532.886 60.7601 532.611 59.7868 532.061 59.0039C531.51 58.221 530.579 57.5228 529.268 56.9092C527.956 56.2744 526.062 55.6502 523.586 55.0366C519.46 54.0422 516.445 52.4976 514.541 50.4028C512.637 48.3081 511.685 45.5469 511.685 42.1191C511.685 37.7393 513.187 34.3538 516.191 31.9629C519.217 29.5508 523.459 28.3447 528.918 28.3447Z" fill="url(#paint3_linear)"/>
</g>
<path id="INNOVATIVE SOLUTIONS FOR EFFICIENT BUSINESS OPERATIONS" d="M131.135 88.0742H133.274V98H131.135V88.0742ZM139.023 93.6045C138.695 93.1396 138.183 92.3125 137.485 91.123V98H135.537V88.0742H137.232L140.254 92.3877C140.637 92.93 141.17 93.7686 141.854 94.9033V88.0742H143.809V98H142.1L139.023 93.6045ZM149.551 93.6045C149.223 93.1396 148.71 92.3125 148.013 91.123V98H146.064V88.0742H147.76L150.781 92.3877C151.164 92.93 151.697 93.7686 152.381 94.9033V88.0742H154.336V98H152.627L149.551 93.6045ZM160.734 87.9307C162.275 87.9307 163.453 88.3682 164.269 89.2432C165.084 90.1136 165.492 91.3623 165.492 92.9893C165.492 94.6527 165.087 95.9242 164.275 96.8037C163.464 97.6833 162.284 98.123 160.734 98.123C159.176 98.123 157.993 97.6855 157.187 96.8105C156.38 95.931 155.977 94.6572 155.977 92.9893C155.977 91.3669 156.384 90.1182 157.2 89.2432C158.016 88.3682 159.194 87.9307 160.734 87.9307ZM160.734 89.6123C159.887 89.6123 159.249 89.8971 158.82 90.4668C158.396 91.0365 158.185 91.8773 158.185 92.9893C158.185 94.1195 158.399 94.9785 158.827 95.5664C159.26 96.1543 159.896 96.4482 160.734 96.4482C161.573 96.4482 162.206 96.1543 162.635 95.5664C163.068 94.9785 163.284 94.1195 163.284 92.9893C163.284 91.8864 163.068 91.0479 162.635 90.4736C162.206 89.8994 161.573 89.6123 160.734 89.6123ZM165.875 88.0742H168.062L169.587 92.7363C169.81 93.429 170.095 94.4499 170.441 95.7988L170.523 96.1543C170.879 94.6777 171.187 93.5384 171.446 92.7363L172.991 88.0742H175.172L171.843 98H169.211L165.875 88.0742ZM177.592 95.4502L176.785 98H174.68L177.899 88.0742H180.729L184.031 98H181.96L181.119 95.4502H177.592ZM179.287 89.9062L178.07 93.8711H180.634L179.383 89.9062H179.287ZM190.895 89.7012H188.208V98H186.068V89.7012H183.279V88.0742H190.895V89.7012ZM192.125 88.0742H194.265V98H192.125V88.0742ZM195.475 88.0742H197.662L199.187 92.7363C199.41 93.429 199.695 94.4499 200.041 95.7988L200.123 96.1543C200.479 94.6777 200.786 93.5384 201.046 92.7363L202.591 88.0742H204.771L201.442 98H198.811L195.475 88.0742ZM208.128 92.1074H212.038V93.6592H208.128V96.4209H212.599V98H205.988V88.0742H212.455V89.6533H208.128V92.1074ZM220.515 87.9512C221.335 87.9466 222.258 88.1266 223.283 88.4912L222.853 90.1318C221.9 89.7946 221.125 89.626 220.528 89.626C220.045 89.626 219.665 89.7217 219.387 89.9131C219.109 90.1045 218.97 90.3643 218.97 90.6924C218.97 91.0479 219.097 91.3304 219.353 91.54C219.612 91.7497 220.084 91.9434 220.768 92.1211C221.775 92.3809 222.49 92.7409 222.914 93.2012C223.338 93.6569 223.55 94.2858 223.55 95.0879C223.55 96.0586 223.222 96.8037 222.565 97.3232C221.914 97.8382 220.982 98.0957 219.77 98.0957C218.781 98.0957 217.721 97.8724 216.591 97.4258L217.097 95.833C217.721 96.0563 218.231 96.2135 218.628 96.3047C219.024 96.3913 219.4 96.4346 219.756 96.4346C220.271 96.4346 220.667 96.3252 220.945 96.1064C221.228 95.8831 221.369 95.5755 221.369 95.1836C221.369 94.9329 221.31 94.7233 221.191 94.5547C221.073 94.3861 220.872 94.2357 220.59 94.1035C220.307 93.9668 219.899 93.8324 219.366 93.7002C218.478 93.486 217.828 93.1533 217.418 92.7021C217.008 92.251 216.803 91.6562 216.803 90.918C216.803 89.9746 217.126 89.2454 217.773 88.7305C218.425 88.2109 219.339 87.9512 220.515 87.9512ZM229.258 87.9307C230.798 87.9307 231.976 88.3682 232.792 89.2432C233.608 90.1136 234.016 91.3623 234.016 92.9893C234.016 94.6527 233.61 95.9242 232.799 96.8037C231.988 97.6833 230.807 98.123 229.258 98.123C227.699 98.123 226.517 97.6855 225.71 96.8105C224.903 95.931 224.5 94.6572 224.5 92.9893C224.5 91.3669 224.908 90.1182 225.724 89.2432C226.539 88.3682 227.717 87.9307 229.258 87.9307ZM229.258 89.6123C228.41 89.6123 227.772 89.8971 227.344 90.4668C226.92 91.0365 226.708 91.8773 226.708 92.9893C226.708 94.1195 226.922 94.9785 227.351 95.5664C227.784 96.1543 228.419 96.4482 229.258 96.4482C230.096 96.4482 230.73 96.1543 231.158 95.5664C231.591 94.9785 231.808 94.1195 231.808 92.9893C231.808 91.8864 231.591 91.0479 231.158 90.4736C230.73 89.8994 230.096 89.6123 229.258 89.6123ZM241.87 98H235.656V88.0742H237.7V96.373H241.87V98ZM251.188 94.6094C251.188 95.7578 250.832 96.6328 250.121 97.2344C249.41 97.8359 248.382 98.1367 247.038 98.1367C245.675 98.1367 244.643 97.8382 243.941 97.2412C243.244 96.6442 242.896 95.7669 242.896 94.6094V88.0742H245.042V94.6367C245.042 95.8398 245.707 96.4437 247.038 96.4482C248.373 96.4482 249.041 95.8444 249.041 94.6367V88.0742H251.188V94.6094ZM259.814 89.7012H257.128V98H254.988V89.7012H252.199V88.0742H259.814V89.7012ZM261.045 88.0742H263.185V98H261.045V88.0742ZM269.59 87.9307C271.13 87.9307 272.308 88.3682 273.124 89.2432C273.94 90.1136 274.348 91.3623 274.348 92.9893C274.348 94.6527 273.942 95.9242 273.131 96.8037C272.32 97.6833 271.139 98.123 269.59 98.123C268.031 98.123 266.849 97.6855 266.042 96.8105C265.235 95.931 264.832 94.6572 264.832 92.9893C264.832 91.3669 265.24 90.1182 266.056 89.2432C266.871 88.3682 268.049 87.9307 269.59 87.9307ZM269.59 89.6123C268.742 89.6123 268.104 89.8971 267.676 90.4668C267.252 91.0365 267.04 91.8773 267.04 92.9893C267.04 94.1195 267.254 94.9785 267.683 95.5664C268.116 96.1543 268.751 96.4482 269.59 96.4482C270.428 96.4482 271.062 96.1543 271.49 95.5664C271.923 94.9785 272.14 94.1195 272.14 92.9893C272.14 91.8864 271.923 91.0479 271.49 90.4736C271.062 89.8994 270.428 89.6123 269.59 89.6123ZM279.475 93.6045C279.146 93.1396 278.634 92.3125 277.937 91.123V98H275.988V88.0742H277.684L280.705 92.3877C281.088 92.93 281.621 93.7686 282.305 94.9033V88.0742H284.26V98H282.551L279.475 93.6045ZM289.681 87.9512C290.501 87.9466 291.424 88.1266 292.449 88.4912L292.019 90.1318C291.066 89.7946 290.291 89.626 289.694 89.626C289.211 89.626 288.831 89.7217 288.553 89.9131C288.275 90.1045 288.136 90.3643 288.136 90.6924C288.136 91.0479 288.263 91.3304 288.519 91.54C288.778 91.7497 289.25 91.9434 289.934 92.1211C290.941 92.3809 291.656 92.7409 292.08 93.2012C292.504 93.6569 292.716 94.2858 292.716 95.0879C292.716 96.0586 292.388 96.8037 291.731 97.3232C291.08 97.8382 290.148 98.0957 288.936 98.0957C287.947 98.0957 286.887 97.8724 285.757 97.4258L286.263 95.833C286.887 96.0563 287.397 96.2135 287.794 96.3047C288.19 96.3913 288.566 96.4346 288.922 96.4346C289.437 96.4346 289.833 96.3252 290.111 96.1064C290.394 95.8831 290.535 95.5755 290.535 95.1836C290.535 94.9329 290.476 94.7233 290.357 94.5547C290.239 94.3861 290.038 94.2357 289.756 94.1035C289.473 93.9668 289.065 93.8324 288.532 93.7002C287.644 93.486 286.994 93.1533 286.584 92.7021C286.174 92.251 285.969 91.6562 285.969 90.918C285.969 89.9746 286.292 89.2454 286.939 88.7305C287.591 88.2109 288.505 87.9512 289.681 87.9512ZM299.565 92.1758H303.236V93.7891H299.565V98H297.426V88.0742H303.811V89.6807H299.565V92.1758ZM309.006 87.9307C310.546 87.9307 311.724 88.3682 312.54 89.2432C313.356 90.1136 313.764 91.3623 313.764 92.9893C313.764 94.6527 313.358 95.9242 312.547 96.8037C311.736 97.6833 310.555 98.123 309.006 98.123C307.447 98.123 306.265 97.6855 305.458 96.8105C304.651 95.931 304.248 94.6572 304.248 92.9893C304.248 91.3669 304.656 90.1182 305.472 89.2432C306.287 88.3682 307.465 87.9307 309.006 87.9307ZM309.006 89.6123C308.158 89.6123 307.52 89.8971 307.092 90.4668C306.668 91.0365 306.456 91.8773 306.456 92.9893C306.456 94.1195 306.67 94.9785 307.099 95.5664C307.532 96.1543 308.167 96.4482 309.006 96.4482C309.844 96.4482 310.478 96.1543 310.906 95.5664C311.339 94.9785 311.556 94.1195 311.556 92.9893C311.556 91.8864 311.339 91.0479 310.906 90.4736C310.478 89.8994 309.844 89.6123 309.006 89.6123ZM317.517 98H315.404V88.0742H318.809C320.048 88.0742 320.998 88.3385 321.659 88.8672C322.325 89.3913 322.657 90.1592 322.657 91.1709C322.657 91.7952 322.498 92.3353 322.179 92.791C321.86 93.2467 321.406 93.5977 320.818 93.8438L322.992 98H320.709L318.891 94.2197H317.517V98ZM318.72 92.6816C319.335 92.6816 319.788 92.5586 320.08 92.3125C320.376 92.0618 320.524 91.6813 320.524 91.1709C320.524 90.6468 320.376 90.264 320.08 90.0225C319.788 89.7764 319.335 89.6533 318.72 89.6533H317.517V92.6816H318.72ZM329.712 92.1074H333.622V93.6592H329.712V96.4209H334.183V98H327.572V88.0742H334.039V89.6533H329.712V92.1074ZM337.929 92.1758H341.6V93.7891H337.929V98H335.789V88.0742H342.174V89.6807H337.929V92.1758ZM345.667 92.1758H349.338V93.7891H345.667V98H343.527V88.0742H349.912V89.6807H345.667V92.1758ZM351.266 88.0742H353.405V98H351.266V88.0742ZM359.879 87.9512C360.403 87.9512 360.925 88.0195 361.444 88.1562C361.968 88.2884 362.438 88.4753 362.853 88.7168L362.217 90.2002C361.825 90.0133 361.463 89.8789 361.13 89.7969C360.802 89.7103 360.469 89.667 360.132 89.667C359.188 89.667 358.471 89.9518 357.979 90.5215C357.491 91.0911 357.247 91.9183 357.247 93.0029C357.247 94.1058 357.491 94.9421 357.979 95.5117C358.471 96.0768 359.188 96.3594 360.132 96.3594C360.861 96.3594 361.622 96.193 362.415 95.8604L362.935 97.4258C361.909 97.8815 360.882 98.1094 359.852 98.1094C358.302 98.1094 357.115 97.6742 356.29 96.8037C355.465 95.9287 355.053 94.6755 355.053 93.0439C355.053 91.9912 355.244 91.082 355.627 90.3164C356.01 89.5508 356.561 88.9652 357.281 88.5596C358.006 88.154 358.872 87.9512 359.879 87.9512ZM364.281 88.0742H366.421V98H364.281V88.0742ZM370.823 92.1074H374.733V93.6592H370.823V96.4209H375.294V98H368.684V88.0742H375.15V89.6533H370.823V92.1074ZM380.387 93.6045C380.059 93.1396 379.546 92.3125 378.849 91.123V98H376.9V88.0742H378.596L381.617 92.3877C382 92.93 382.533 93.7686 383.217 94.9033V88.0742H385.172V98H383.463L380.387 93.6045ZM394.004 89.7012H391.317V98H389.178V89.7012H386.389V88.0742H394.004V89.7012ZM403.54 92.8457C404.128 93.0326 404.581 93.3219 404.9 93.7139C405.219 94.1058 405.379 94.582 405.379 95.1426C405.379 96.0495 405.053 96.7536 404.401 97.2549C403.754 97.7516 402.843 98 401.667 98H397.873V88.0742H401.387C402.553 88.0742 403.453 88.3044 404.087 88.7646C404.72 89.2204 405.037 89.863 405.037 90.6924C405.037 91.7087 404.538 92.3991 403.54 92.7637V92.8457ZM401.277 92.1621C402.376 92.1621 402.925 91.7178 402.925 90.8291C402.925 90.0088 402.376 89.5986 401.277 89.5986H399.876V92.1621H401.277ZM401.558 96.4756C402.086 96.4756 402.496 96.348 402.788 96.0928C403.084 95.833 403.232 95.4707 403.232 95.0059C403.232 94.5592 403.077 94.222 402.768 93.9941C402.462 93.7617 402.011 93.6455 401.414 93.6455H399.876V96.4756H401.558ZM415.086 94.6094C415.086 95.7578 414.73 96.6328 414.02 97.2344C413.309 97.8359 412.281 98.1367 410.937 98.1367C409.574 98.1367 408.542 97.8382 407.84 97.2412C407.143 96.6442 406.794 95.7669 406.794 94.6094V88.0742H408.94V94.6367C408.94 95.8398 409.606 96.4437 410.937 96.4482C412.272 96.4482 412.939 95.8444 412.939 94.6367V88.0742H415.086V94.6094ZM420.302 87.9512C421.122 87.9466 422.045 88.1266 423.07 88.4912L422.64 90.1318C421.687 89.7946 420.912 89.626 420.315 89.626C419.832 89.626 419.452 89.7217 419.174 89.9131C418.896 90.1045 418.757 90.3643 418.757 90.6924C418.757 91.0479 418.884 91.3304 419.14 91.54C419.399 91.7497 419.871 91.9434 420.555 92.1211C421.562 92.3809 422.277 92.7409 422.701 93.2012C423.125 93.6569 423.337 94.2858 423.337 95.0879C423.337 96.0586 423.009 96.8037 422.353 97.3232C421.701 97.8382 420.769 98.0957 419.557 98.0957C418.568 98.0957 417.508 97.8724 416.378 97.4258L416.884 95.833C417.508 96.0563 418.019 96.2135 418.415 96.3047C418.812 96.3913 419.188 96.4346 419.543 96.4346C420.058 96.4346 420.454 96.3252 420.732 96.1064C421.015 95.8831 421.156 95.5755 421.156 95.1836C421.156 94.9329 421.097 94.7233 420.979 94.5547C420.86 94.3861 420.66 94.2357 420.377 94.1035C420.094 93.9668 419.687 93.8324 419.153 93.7002C418.265 93.486 417.615 93.1533 417.205 92.7021C416.795 92.251 416.59 91.6562 416.59 90.918C416.59 89.9746 416.913 89.2454 417.561 88.7305C418.212 88.2109 419.126 87.9512 420.302 87.9512ZM424.902 88.0742H427.042V98H424.902V88.0742ZM432.791 93.6045C432.463 93.1396 431.95 92.3125 431.253 91.123V98H429.305V88.0742H431L434.021 92.3877C434.404 92.93 434.938 93.7686 435.621 94.9033V88.0742H437.576V98H435.867L432.791 93.6045ZM441.972 92.1074H445.882V93.6592H441.972V96.4209H446.442V98H439.832V88.0742H446.299V89.6533H441.972V92.1074ZM451.214 87.9512C452.034 87.9466 452.957 88.1266 453.982 88.4912L453.552 90.1318C452.599 89.7946 451.825 89.626 451.228 89.626C450.744 89.626 450.364 89.7217 450.086 89.9131C449.808 90.1045 449.669 90.3643 449.669 90.6924C449.669 91.0479 449.797 91.3304 450.052 91.54C450.312 91.7497 450.783 91.9434 451.467 92.1211C452.474 92.3809 453.189 92.7409 453.613 93.2012C454.037 93.6569 454.249 94.2858 454.249 95.0879C454.249 96.0586 453.921 96.8037 453.265 97.3232C452.613 97.8382 451.681 98.0957 450.469 98.0957C449.48 98.0957 448.42 97.8724 447.29 97.4258L447.796 95.833C448.42 96.0563 448.931 96.2135 449.327 96.3047C449.724 96.3913 450.1 96.4346 450.455 96.4346C450.97 96.4346 451.367 96.3252 451.645 96.1064C451.927 95.8831 452.068 95.5755 452.068 95.1836C452.068 94.9329 452.009 94.7233 451.891 94.5547C451.772 94.3861 451.572 94.2357 451.289 94.1035C451.007 93.9668 450.599 93.8324 450.065 93.7002C449.177 93.486 448.527 93.1533 448.117 92.7021C447.707 92.251 447.502 91.6562 447.502 90.918C447.502 89.9746 447.826 89.2454 448.473 88.7305C449.124 88.2109 450.038 87.9512 451.214 87.9512ZM458.979 87.9512C459.8 87.9466 460.723 88.1266 461.748 88.4912L461.317 90.1318C460.365 89.7946 459.59 89.626 458.993 89.626C458.51 89.626 458.13 89.7217 457.852 89.9131C457.574 90.1045 457.435 90.3643 457.435 90.6924C457.435 91.0479 457.562 91.3304 457.817 91.54C458.077 91.7497 458.549 91.9434 459.232 92.1211C460.24 92.3809 460.955 92.7409 461.379 93.2012C461.803 93.6569 462.015 94.2858 462.015 95.0879C462.015 96.0586 461.687 96.8037 461.03 97.3232C460.379 97.8382 459.447 98.0957 458.234 98.0957C457.245 98.0957 456.186 97.8724 455.056 97.4258L455.562 95.833C456.186 96.0563 456.696 96.2135 457.093 96.3047C457.489 96.3913 457.865 96.4346 458.221 96.4346C458.736 96.4346 459.132 96.3252 459.41 96.1064C459.693 95.8831 459.834 95.5755 459.834 95.1836C459.834 94.9329 459.775 94.7233 459.656 94.5547C459.538 94.3861 459.337 94.2357 459.055 94.1035C458.772 93.9668 458.364 93.8324 457.831 93.7002C456.942 93.486 456.293 93.1533 455.883 92.7021C455.473 92.251 455.268 91.6562 455.268 90.918C455.268 89.9746 455.591 89.2454 456.238 88.7305C456.89 88.2109 457.804 87.9512 458.979 87.9512ZM470.867 87.9307C472.408 87.9307 473.586 88.3682 474.401 89.2432C475.217 90.1136 475.625 91.3623 475.625 92.9893C475.625 94.6527 475.219 95.9242 474.408 96.8037C473.597 97.6833 472.417 98.123 470.867 98.123C469.309 98.123 468.126 97.6855 467.319 96.8105C466.513 95.931 466.109 94.6572 466.109 92.9893C466.109 91.3669 466.517 90.1182 467.333 89.2432C468.149 88.3682 469.327 87.9307 470.867 87.9307ZM470.867 89.6123C470.02 89.6123 469.382 89.8971 468.953 90.4668C468.529 91.0365 468.317 91.8773 468.317 92.9893C468.317 94.1195 468.532 94.9785 468.96 95.5664C469.393 96.1543 470.029 96.4482 470.867 96.4482C471.706 96.4482 472.339 96.1543 472.768 95.5664C473.201 94.9785 473.417 94.1195 473.417 92.9893C473.417 91.8864 473.201 91.0479 472.768 90.4736C472.339 89.8994 471.706 89.6123 470.867 89.6123ZM480.67 88.0742C481.882 88.0742 482.81 88.3431 483.452 88.8809C484.095 89.4141 484.416 90.1911 484.416 91.2119C484.416 92.2008 484.09 92.971 483.438 93.5225C482.787 94.0693 481.878 94.3428 480.711 94.3428H479.378V98H477.266V88.0742H480.67ZM480.581 92.7773C481.16 92.7773 481.59 92.6497 481.873 92.3945C482.16 92.1348 482.304 91.7406 482.304 91.2119C482.304 90.6787 482.162 90.2868 481.88 90.0361C481.602 89.7809 481.169 89.6533 480.581 89.6533H479.378V92.7773H480.581ZM487.978 92.1074H491.888V93.6592H487.978V96.4209H492.448V98H485.838V88.0742H492.305V89.6533H487.978V92.1074ZM496.167 98H494.055V88.0742H497.459C498.699 88.0742 499.649 88.3385 500.31 88.8672C500.975 89.3913 501.308 90.1592 501.308 91.1709C501.308 91.7952 501.148 92.3353 500.829 92.791C500.51 93.2467 500.057 93.5977 499.469 93.8438L501.643 98H499.359L497.541 94.2197H496.167V98ZM497.37 92.6816C497.985 92.6816 498.439 92.5586 498.73 92.3125C499.027 92.0618 499.175 91.6813 499.175 91.1709C499.175 90.6468 499.027 90.264 498.73 90.0225C498.439 89.7764 497.985 89.6533 497.37 89.6533H496.167V92.6816H497.37ZM504.951 95.4502L504.145 98H502.039L505.259 88.0742H508.089L511.391 98H509.319L508.479 95.4502H504.951ZM506.646 89.9062L505.43 93.8711H507.993L506.742 89.9062H506.646ZM518.254 89.7012H515.567V98H513.428V89.7012H510.639V88.0742H518.254V89.7012ZM519.484 88.0742H521.624V98H519.484V88.0742ZM528.029 87.9307C529.57 87.9307 530.748 88.3682 531.563 89.2432C532.379 90.1136 532.787 91.3623 532.787 92.9893C532.787 94.6527 532.382 95.9242 531.57 96.8037C530.759 97.6833 529.579 98.123 528.029 98.123C526.471 98.123 525.288 97.6855 524.481 96.8105C523.675 95.931 523.271 94.6572 523.271 92.9893C523.271 91.3669 523.679 90.1182 524.495 89.2432C525.311 88.3682 526.489 87.9307 528.029 87.9307ZM528.029 89.6123C527.182 89.6123 526.544 89.8971 526.115 90.4668C525.691 91.0365 525.479 91.8773 525.479 92.9893C525.479 94.1195 525.694 94.9785 526.122 95.5664C526.555 96.1543 527.191 96.4482 528.029 96.4482C528.868 96.4482 529.501 96.1543 529.93 95.5664C530.363 94.9785 530.579 94.1195 530.579 92.9893C530.579 91.8864 530.363 91.0479 529.93 90.4736C529.501 89.8994 528.868 89.6123 528.029 89.6123ZM537.914 93.6045C537.586 93.1396 537.073 92.3125 536.376 91.123V98H534.428V88.0742H536.123L539.145 92.3877C539.527 92.93 540.061 93.7686 540.744 94.9033V88.0742H542.699V98H540.99L537.914 93.6045ZM548.12 87.9512C548.94 87.9466 549.863 88.1266 550.889 88.4912L550.458 90.1318C549.506 89.7946 548.731 89.626 548.134 89.626C547.651 89.626 547.27 89.7217 546.992 89.9131C546.714 90.1045 546.575 90.3643 546.575 90.6924C546.575 91.0479 546.703 91.3304 546.958 91.54C547.218 91.7497 547.689 91.9434 548.373 92.1211C549.38 92.3809 550.096 92.7409 550.52 93.2012C550.943 93.6569 551.155 94.2858 551.155 95.0879C551.155 96.0586 550.827 96.8037 550.171 97.3232C549.519 97.8382 548.587 98.0957 547.375 98.0957C546.386 98.0957 545.326 97.8724 544.196 97.4258L544.702 95.833C545.326 96.0563 545.837 96.2135 546.233 96.3047C546.63 96.3913 547.006 96.4346 547.361 96.4346C547.876 96.4346 548.273 96.3252 548.551 96.1064C548.833 95.8831 548.975 95.5755 548.975 95.1836C548.975 94.9329 548.915 94.7233 548.797 94.5547C548.678 94.3861 548.478 94.2357 548.195 94.1035C547.913 93.9668 547.505 93.8324 546.972 93.7002C546.083 93.486 545.434 93.1533 545.023 92.7021C544.613 92.251 544.408 91.6562 544.408 90.918C544.408 89.9746 544.732 89.2454 545.379 88.7305C546.031 88.2109 546.944 87.9512 548.12 87.9512Z" fill="url(#paint4_linear)"/>
</g>
</g>
<defs>
<filter id="filter0_d" x="128.412" y="28.2495" width="418.598" height="55.3218" filterUnits="userSpaceOnUse" color-interpolation-filters="sRGB">
<feFlood flood-opacity="0" result="BackgroundImageFix"/>
<feColorMatrix in="SourceAlpha" type="matrix" values="0 0 0 0 0 0 0 0 0 0 0 0 0 0 0 0 0 0 127 0"/>
<feOffset dy="4"/>
<feGaussianBlur stdDeviation="2"/>
<feColorMatrix type="matrix" values="0 0 0 0 0 0 0 0 0 0 0 0 0 0 0 0 0 0 0.25 0"/>
<feBlend mode="normal" in2="BackgroundImageFix" result="effect1_dropShadow"/>
<feBlend mode="normal" in="SourceGraphic" in2="effect1_dropShadow" result="shape"/>
</filter>
<linearGradient id="paint0_linear" x1="15.537" y1="60" x2="115.769" y2="60.6944" gradientUnits="userSpaceOnUse">
<stop stop-color="#2F589D"/>
<stop offset="1" stop-color="#172B4D"/>
</linearGradient>
<linearGradient id="paint1_linear" x1="17" y1="60" x2="115" y2="60" gradientUnits="userSpaceOnUse">
<stop stop-color="#2F589D"/>
<stop offset="1" stop-color="#172C4F"/>
</linearGradient>
<linearGradient id="paint2_linear" x1="17" y1="60" x2="114" y2="60" gradientUnits="userSpaceOnUse">
<stop stop-color="#2F589D"/>
<stop offset="0.998979" stop-color="#172C4F"/>
</linearGradient>
<linearGradient id="paint3_linear" x1="343.5" y1="18" x2="343.5" y2="85" gradientUnits="userSpaceOnUse">
<stop stop-color="#2F589D"/>
<stop offset="0.0001" stop-color="#2F589D"/>
<stop offset="0.9998" stop-color="#172C4F"/>
<stop offset="0.9999" stop-color="#182D50"/>
</linearGradient>
<linearGradient id="paint4_linear" x1="130" y1="92.9999" x2="549.395" y2="92.9999" gradientUnits="userSpaceOnUse">
<stop stop-color="#2F589D"/>
<stop offset="1" stop-color="#172C4F"/>
</linearGradient>
</defs>
</svg>
